<?xml version="1.0" encoding="utf-8"?>
<svg version="1.1"
	 id="svg50" xmlns:cc="http://creativecommons.org/ns#" xmlns:dc="http://purl.org/dc/elements/1.1/" xmlns:rdf="http://www.w3.org/1999/02/22-rdf-syntax-ns#" xmlns:svg="http://www.w3.org/2000/svg"
	 xmlns="http://www.w3.org/2000/svg" xmlns:xlink="http://www.w3.org/1999/xlink" x="0px" y="0px" viewBox="0 0 29.1 29.1"
	 style="enable-background:new 0 0 29.1 29.1;" xml:space="preserve">
<style type="text/css">
	.st0{fill:url(#circle40_1_);}
	.st1{fill:#FFFFFF;fill-opacity:0.847;}
</style>
<linearGradient id="circle40_1_" gradientUnits="userSpaceOnUse" x1="14.4079" y1="3.2029" x2="14.4079" y2="30.2029" gradientTransform="matrix(1 0 0 -1 0.135 31.0858)">
	<stop  offset="0" style="stop-color:#197FF1"/>
	<stop  offset="1" style="stop-color:#21C6FB"/>
</linearGradient>
<circle id="circle40" class="st0" cx="14.5" cy="14.5" r="14"/>
<path id="path46" class="st1" d="M21.2,19.8l-2.9-2.9c0.7-1,1-2.1,1-3.4c0-0.8-0.2-1.6-0.5-2.3c-0.3-0.7-0.7-1.4-1.3-1.9
	s-1.2-1-1.9-1.3c-0.7-0.3-1.5-0.5-2.3-0.5s-1.6,0.2-2.3,0.5S9.8,8.8,9.3,9.3s-1,1.2-1.3,1.9c-0.3,0.7-0.5,1.5-0.5,2.3
	s0.2,1.6,0.5,2.3c0.3,0.7,0.7,1.4,1.3,1.9s1.2,1,1.9,1.3c0.7,0.3,1.5,0.5,2.3,0.5c1.2,0,2.4-0.3,3.4-1l2.9,2.9
	c0.2,0.2,0.5,0.3,0.8,0.3c0.3,0,0.5-0.1,0.8-0.3c0.2-0.2,0.3-0.5,0.3-0.8C21.5,20.2,21.4,20,21.2,19.8 M16.1,16.2
	c-0.7,0.7-1.6,1.1-2.7,1.1s-1.9-0.4-2.7-1.1c-0.7-0.7-1.1-1.6-1.1-2.7s0.4-1.9,1.1-2.7c0.7-0.7,1.6-1.1,2.7-1.1s1.9,0.4,2.7,1.1
	c0.7,0.7,1.1,1.6,1.1,2.7S16.9,15.4,16.1,16.2"/>
</svg>
