<?xml version="1.0" encoding="UTF-8"?>
<!DOCTYPE svg PUBLIC "-//W3C//DTD SVG 1.1//EN" "http://www.w3.org/Graphics/SVG/1.1/DTD/svg11.dtd">
<svg xmlns="http://www.w3.org/2000/svg" version="1.1" width="1166px" height="372px" style="shape-rendering:geometricPrecision; text-rendering:geometricPrecision; image-rendering:optimizeQuality; fill-rule:evenodd; clip-rule:evenodd" xmlns:xlink="http://www.w3.org/1999/xlink">
<g><path style="opacity:1" fill="#367cf6" d="M -0.5,-0.5 C 388.167,-0.5 776.833,-0.5 1165.5,-0.5C 1165.5,123.5 1165.5,247.5 1165.5,371.5C 776.833,371.5 388.167,371.5 -0.5,371.5C -0.5,247.5 -0.5,123.5 -0.5,-0.5 Z"/></g>
<g><path style="opacity:1" fill="#fdfdfe" d="M 166.5,70.5 C 191.01,68.8913 212.343,76.2246 230.5,92.5C 224.637,100.903 218.304,108.903 211.5,116.5C 203.5,109.017 194.167,103.851 183.5,101C 177.747,100.149 172.08,100.483 166.5,102C 156.841,108.259 156.174,115.259 164.5,123C 180.018,130.258 195.685,137.258 211.5,144C 233.208,159.508 238.042,179.341 226,203.5C 213.195,219.647 196.362,227.314 175.5,226.5C 152.682,225.426 134.349,215.926 120.5,198C 126.876,190.092 133.376,182.259 140,174.5C 147.434,184.966 157.267,192.133 169.5,196C 178.138,197.274 186.472,196.274 194.5,193C 202.423,185.634 202.423,178.3 194.5,171C 183.395,165.781 172.062,161.114 160.5,157C 150.155,152.575 141.322,146.075 134,137.5C 121.615,113.345 126.448,93.5119 148.5,78C 154.499,75.1571 160.499,72.6571 166.5,70.5 Z"/></g>
<g><path style="opacity:1" fill="#fefefe" d="M 812.5,112.5 C 813.498,149.996 813.832,187.663 813.5,225.5C 803.833,225.5 794.167,225.5 784.5,225.5C 784.333,190.832 784.5,156.165 785,121.5C 794.002,117.999 803.169,114.999 812.5,112.5 Z"/></g>
<g><path style="opacity:1" fill="#8bb3f9" d="M 812.5,112.5 C 812.56,111.957 812.893,111.624 813.5,111.5C 814.83,149.665 814.83,187.665 813.5,225.5C 813.832,187.663 813.498,149.996 812.5,112.5 Z"/></g>
<g><path style="opacity:1" fill="#fdfdfe" d="M 513.5,113.5 C 517.833,113.5 522.167,113.5 526.5,113.5C 526.5,123.167 526.5,132.833 526.5,142.5C 508.316,143.511 496.816,152.845 492,170.5C 491.5,188.83 491.333,207.164 491.5,225.5C 481.833,225.5 472.167,225.5 462.5,225.5C 462.333,205.497 462.5,185.497 463,165.5C 469.581,138.088 486.414,120.754 513.5,113.5 Z"/></g>
<g><path style="opacity:1" fill="#fdfdfe" d="M 904.5,113.5 C 904.5,123.5 904.5,133.5 904.5,143.5C 890.323,143.171 876.323,143.504 862.5,144.5C 857.74,147.076 857.406,150.242 861.5,154C 893.506,152.672 908.672,167.838 907,199.5C 903.14,212.693 894.64,221.193 881.5,225C 862.87,226.404 844.204,226.904 825.5,226.5C 825.5,216.167 825.5,205.833 825.5,195.5C 841.837,195.667 858.17,195.5 874.5,195C 877.167,192 877.167,189 874.5,186C 856.149,188.236 841.982,181.736 832,166.5C 823.192,146.562 827.692,130.395 845.5,118C 848.618,116.107 851.951,114.774 855.5,114C 871.83,113.5 888.163,113.333 904.5,113.5 Z"/></g>
<g><path style="opacity:1" fill="#fdfdfe" d="M 389.5,114.5 C 421.458,113.971 441.958,128.971 451,159.5C 454.601,189.479 442.767,210.645 415.5,223C 384.376,231.842 360.876,222.342 345,194.5C 333.037,160.04 343.203,134.54 375.5,118C 380.278,116.751 384.945,115.584 389.5,114.5 Z"/></g>
<g><path style="opacity:1" fill="#fdfdfe" d="M 287.5,114.5 C 308.993,113.314 325.993,121.314 338.5,138.5C 330.578,144.044 322.745,149.711 315,155.5C 304.348,143.478 291.848,141.312 277.5,149C 262.585,164.015 262.918,178.681 278.5,193C 292.362,199.365 304.696,197.199 315.5,186.5C 322.914,191.624 330.414,196.624 338,201.5C 338.667,202.5 338.667,203.5 338,204.5C 322.268,222.856 302.434,229.69 278.5,225C 246.342,212.871 233.176,189.704 239,155.5C 246.837,131.819 263.004,118.153 287.5,114.5 Z"/></g>
<g><path style="opacity:1" fill="#fdfefe" d="M 563.5,115.5 C 588.577,112.631 608.41,121.298 623,141.5C 629.995,154.976 632.495,169.31 630.5,184.5C 604.498,184.333 578.498,184.5 552.5,185C 565.338,199.877 579.671,201.377 595.5,189.5C 602.713,195.875 609.213,202.541 615,209.5C 598.159,224.953 578.659,229.453 556.5,223C 533.163,212.841 520.83,195.008 519.5,169.5C 522.352,141.761 537.019,123.761 563.5,115.5 Z"/></g>
<g><path style="opacity:1" fill="#ccddfc" d="M 651.5,116.5 C 641.319,116.173 631.319,116.506 621.5,117.5C 620.957,117.44 620.624,117.107 620.5,116.5C 630.993,115.177 641.326,115.177 651.5,116.5 Z"/></g>
<g><path style="opacity:1" fill="#cadcfc" d="M 687.5,116.5 C 691.486,115.834 695.653,115.501 700,115.5C 704.557,115.509 708.724,116.175 712.5,117.5C 704.252,116.531 695.918,116.198 687.5,116.5 Z"/></g>
<g><path style="opacity:1" fill="#ccdefc" d="M 748.5,116.5 C 758.674,115.177 769.007,115.177 779.5,116.5C 779.376,117.107 779.043,117.44 778.5,117.5C 768.681,116.506 758.681,116.173 748.5,116.5 Z"/></g>
<g><path style="opacity:1" fill="#fdfefe" d="M 1019.5,184.5 C 993.491,184.167 967.491,184.5 941.5,185.5C 941.624,186.107 941.957,186.44 942.5,186.5C 951.061,196.983 961.728,199.816 974.5,195C 977.632,193.365 980.632,191.532 983.5,189.5C 990.591,195.38 997.258,201.714 1003.5,208.5C 994.949,217.943 984.282,223.443 971.5,225C 937.998,227.158 917.165,211.991 909,179.5C 905.967,153.399 915.8,133.899 938.5,121C 964.72,110.118 987.554,114.951 1007,135.5C 1017.81,150.031 1021.98,166.365 1019.5,184.5 Z"/></g>
<g><path style="opacity:1" fill="#fdfefe" d="M 651.5,116.5 C 658.104,135.145 664.604,153.812 671,172.5C 676.201,153.731 681.701,135.065 687.5,116.5C 695.918,116.198 704.252,116.531 712.5,117.5C 718.241,135.89 724.075,154.223 730,172.5C 735.876,153.706 742.043,135.039 748.5,116.5C 758.681,116.173 768.681,116.506 778.5,117.5C 766.637,153.255 754.47,188.922 742,224.5C 733.585,225.483 725.085,225.817 716.5,225.5C 711.508,207.357 706.008,189.357 700,171.5C 693.934,189.032 688.267,206.699 683,224.5C 674.667,225.833 666.333,225.833 658,224.5C 645.53,188.922 633.363,153.255 621.5,117.5C 631.319,116.506 641.319,116.173 651.5,116.5 Z"/></g>
<g><path style="opacity:1" fill="#9abcfa" d="M 904.5,113.5 C 905.494,123.653 905.828,133.986 905.5,144.5C 891.167,144.5 876.833,144.5 862.5,144.5C 876.323,143.504 890.323,143.171 904.5,143.5C 904.5,133.5 904.5,123.5 904.5,113.5 Z"/></g>
<g><path style="opacity:1" fill="#387cf6" d="M 387.5,144.5 C 404.567,141.76 416.067,148.427 422,164.5C 423.831,179.675 417.664,190.175 403.5,196C 379.524,198.357 368.357,187.523 370,163.5C 372.928,154.408 378.762,148.075 387.5,144.5 Z"/></g>
<g><path style="opacity:1" fill="#3c7ef6" d="M 596.5,154.5 C 582.343,155.496 568.01,155.829 553.5,155.5C 561.931,143.973 572.931,140.806 586.5,146C 590.613,147.948 593.946,150.781 596.5,154.5 Z"/></g>
<g><path style="opacity:1" fill="#3c7ef6" d="M 985.5,155.5 C 970.99,155.829 956.657,155.496 942.5,154.5C 952.658,142.8 964.658,140.633 978.5,148C 981.739,149.736 984.073,152.236 985.5,155.5 Z"/></g>
<g><path style="opacity:1" fill="#659bf8" d="M 942.5,154.5 C 956.657,155.496 970.99,155.829 985.5,155.5C 979.078,156.184 971.912,156.517 964,156.5C 956.5,156.167 949,155.833 941.5,155.5C 941.624,154.893 941.957,154.56 942.5,154.5 Z"/></g>
<g><path style="opacity:1" fill="#659bf8" d="M 596.5,154.5 C 597.043,154.56 597.376,154.893 597.5,155.5C 590,155.833 582.5,156.167 575,156.5C 567.088,156.517 559.922,156.184 553.5,155.5C 568.01,155.829 582.343,155.496 596.5,154.5 Z"/></g>
<g><path style="opacity:1" fill="#6fa0f8" d="M 1019.5,184.5 C 993.833,185.167 968.167,185.833 942.5,186.5C 941.957,186.44 941.624,186.107 941.5,185.5C 967.491,184.5 993.491,184.167 1019.5,184.5 Z"/></g>
</svg>
