<?xml version="1.0" encoding="UTF-8"?>
<!DOCTYPE svg PUBLIC "-//W3C//DTD SVG 1.1//EN" "http://www.w3.org/Graphics/SVG/1.1/DTD/svg11.dtd">
<svg xmlns="http://www.w3.org/2000/svg" version="1.1" width="1024px" height="1024px" style="shape-rendering:geometricPrecision; text-rendering:geometricPrecision; image-rendering:optimizeQuality; fill-rule:evenodd; clip-rule:evenodd" xmlns:xlink="http://www.w3.org/1999/xlink">
<g><path style="opacity:1" fill="#fdf8f5" d="M -0.5,-0.5 C 340.833,-0.5 682.167,-0.5 1023.5,-0.5C 1023.5,340.833 1023.5,682.167 1023.5,1023.5C 682.167,1023.5 340.833,1023.5 -0.5,1023.5C -0.5,682.167 -0.5,340.833 -0.5,-0.5 Z"/></g>
<g><path style="opacity:1" fill="#fed635" d="M 572.5,128.5 C 607.272,135.116 640.938,145.616 673.5,160C 682.212,165.023 691.212,169.523 700.5,173.5C 787.313,223.385 845.313,296.385 874.5,392.5C 873.861,393.097 873.528,393.93 873.5,395C 877.344,407.296 880.01,418.962 881.5,430C 881.245,431.326 880.578,432.326 879.5,433C 881.061,433.318 882.228,434.151 883,435.5C 887.371,468.012 888.704,500.678 887,533.5C 886.108,540.476 885.608,547.476 885.5,554.5C 869.474,657.425 820.474,740.592 738.5,804C 646.128,872.086 543.461,894.753 430.5,872C 331.466,847.584 253.299,793.417 196,709.5C 146.144,633.743 125.978,550.743 135.5,460.5C 135.343,461.873 135.51,463.207 136,464.5C 138.396,440.792 142.729,417.459 149,394.5C 155.154,375.534 161.987,356.867 169.5,338.5C 220.895,233.425 303.228,165.591 416.5,135C 468.209,122.379 520.209,120.213 572.5,128.5 Z"/></g>
<g><path style="opacity:1" fill="#fdc721" d="M 572.5,128.5 C 618.279,135.201 660.946,150.201 700.5,173.5C 691.212,169.523 682.212,165.023 673.5,160C 640.938,145.616 607.272,135.116 572.5,128.5 Z"/></g>
<g><path style="opacity:1" fill="#fcf8f5" d="M 505.5,262.5 C 536.009,261.846 552.342,276.679 554.5,307C 547.018,393.32 538.518,479.486 529,565.5C 520.566,576.61 510.4,578.443 498.5,571C 495.433,567.703 493.267,563.869 492,559.5C 484.753,474.946 476.92,390.446 468.5,306C 470.309,282.37 482.642,267.87 505.5,262.5 Z"/></g>
<g><path style="opacity:1" fill="#fdc725" d="M 169.5,338.5 C 161.987,356.867 155.154,375.534 149,394.5C 142.729,417.459 138.396,440.792 136,464.5C 135.51,463.207 135.343,461.873 135.5,460.5C 139.067,417.552 150.401,376.885 169.5,338.5 Z"/></g>
<g><path style="opacity:1" fill="#fdc924" d="M 874.5,392.5 C 890.103,445.825 893.77,499.825 885.5,554.5C 885.608,547.476 886.108,540.476 887,533.5C 888.704,500.678 887.371,468.012 883,435.5C 882.228,434.151 881.061,433.318 879.5,433C 880.578,432.326 881.245,431.326 881.5,430C 880.01,418.962 877.344,407.296 873.5,395C 873.528,393.93 873.861,393.097 874.5,392.5 Z"/></g>
<g><path style="opacity:1" fill="#fcf8f4" d="M 506.5,618.5 C 532.759,618.707 549.592,631.373 557,656.5C 560.316,685.738 548.149,704.904 520.5,714C 491.719,716.881 473.552,704.381 466,676.5C 463.026,645.396 476.526,626.063 506.5,618.5 Z"/></g>
</svg>
