<?xml version="1.0" encoding="UTF-8"?>
<!DOCTYPE svg PUBLIC "-//W3C//DTD SVG 1.1//EN" "http://www.w3.org/Graphics/SVG/1.1/DTD/svg11.dtd">
<svg xmlns="http://www.w3.org/2000/svg" version="1.1" width="1024px" height="1024px" style="shape-rendering:geometricPrecision; text-rendering:geometricPrecision; image-rendering:optimizeQuality; fill-rule:evenodd; clip-rule:evenodd" xmlns:xlink="http://www.w3.org/1999/xlink">
<g><path style="opacity:1" fill="#fcfdfe" d="M -0.5,-0.5 C 340.833,-0.5 682.167,-0.5 1023.5,-0.5C 1023.5,340.833 1023.5,682.167 1023.5,1023.5C 682.167,1023.5 340.833,1023.5 -0.5,1023.5C -0.5,682.167 -0.5,340.833 -0.5,-0.5 Z"/></g>
<g><path style="opacity:1" fill="#0c5ad2" d="M 792.5,194.5 C 815.747,219.249 839.581,243.582 864,267.5C 867.192,272.656 870.026,277.322 872.5,281.5C 873.776,283.562 874.61,285.896 875,288.5C 875.333,307.167 875.667,325.833 876,344.5C 876.833,472.334 876.666,600.001 875.5,727.5C 873.567,770.158 873.233,812.825 874.5,855.5C 877.232,885.347 866.899,909.347 843.5,927.5C 843.44,926.957 843.107,926.624 842.5,926.5C 833.473,932.901 823.473,937.067 812.5,939C 666.673,940.713 521.006,941.879 375.5,942.5C 319.792,942.625 264.126,941.792 208.5,940C 176.004,931.172 156.171,910.339 149,877.5C 144.204,623.335 144.371,369.335 149.5,115.5C 149.333,127.171 149.5,138.838 150,150.5C 150.241,137.152 150.741,123.819 151.5,110.5C 151.489,108.955 151.156,107.622 150.5,106.5C 158.905,76.5953 178.238,58.0953 208.5,51C 351.167,50.3333 493.833,50.3333 636.5,51C 645.696,52.7659 654.029,56.4325 661.5,62C 705.042,106.211 748.708,150.378 792.5,194.5 Z"/></g>
<g><path style="opacity:1" fill="#fcfdfe" d="M 661.5,314.5 C 719.167,314.5 776.833,314.5 834.5,314.5C 834.5,324.167 834.5,333.833 834.5,343.5C 834.17,359.675 834.504,375.675 835.5,391.5C 835.466,519.168 835.133,646.834 834.5,774.5C 833.574,808.703 832.407,843.036 831,877.5C 826.766,889.734 818.266,896.901 805.5,899C 609.166,900.985 412.833,900.985 216.5,899C 211.456,897.973 206.79,896.139 202.5,893.5C 196.832,888.32 192.999,881.987 191,874.5C 189.584,859.55 189.084,844.55 189.5,829.5C 189.828,818.986 189.494,808.653 188.5,798.5C 188.5,764.167 188.5,729.833 188.5,695.5C 188.204,543.496 188.537,391.496 189.5,239.5C 189.459,198.139 190.125,156.805 191.5,115.5C 195.291,104.21 202.958,96.7103 214.5,93C 341.166,92.5 467.833,92.3333 594.5,92.5C 594.333,144.168 594.5,195.834 595,247.5C 600.607,286.274 622.774,308.607 661.5,314.5 Z"/></g>
<g><path style="opacity:1" fill="#fcfefe" d="M 811.5,271.5 C 811.5,272.167 811.167,272.5 810.5,272.5C 760.832,272.667 711.166,272.5 661.5,272C 658.353,271.119 655.353,269.953 652.5,268.5C 644.783,263.448 639.783,256.448 637.5,247.5C 637.333,197.832 637.5,148.166 638,98.5C 695.701,156.368 753.535,214.035 811.5,271.5 Z"/></g>
<g><path style="opacity:1" fill="#0434c9" d="M 150.5,106.5 C 151.156,107.622 151.489,108.955 151.5,110.5C 150.741,123.819 150.241,137.152 150,150.5C 149.5,138.838 149.333,127.171 149.5,115.5C 149.704,112.482 150.037,109.482 150.5,106.5 Z"/></g>
<g><path style="opacity:1" fill="#0943cb" d="M 811.5,271.5 C 753.535,214.035 695.701,156.368 638,98.5C 637.5,148.166 637.333,197.832 637.5,247.5C 636.659,248.009 636.159,247.343 636,245.5C 635.333,196.5 635.333,147.5 636,98.5C 636.561,97.9781 637.228,97.6448 638,97.5C 696.46,154.96 754.627,212.793 812.5,271C 812.272,271.399 811.938,271.565 811.5,271.5 Z"/></g>
<g><path style="opacity:1" fill="#0437c8" d="M 191.5,115.5 C 190.125,156.805 189.459,198.139 189.5,239.5C 188.255,198.993 188.421,158.326 190,117.5C 190.159,115.657 190.659,114.991 191.5,115.5 Z"/></g>
<g><path style="opacity:1" fill="#053eca" d="M 792.5,194.5 C 816.799,218.298 840.965,242.298 865,266.5C 868.565,270.964 871.065,275.964 872.5,281.5C 870.026,277.322 867.192,272.656 864,267.5C 839.581,243.582 815.747,219.249 792.5,194.5 Z"/></g>
<g><path style="opacity:1" fill="#002fc9" d="M 652.5,268.5 C 655.353,269.953 658.353,271.119 661.5,272C 711.166,272.5 760.832,272.667 810.5,272.5C 760.668,273.665 710.668,273.832 660.5,273C 658.129,272.265 655.795,271.432 653.5,270.5C 652.702,270.043 652.369,269.376 652.5,268.5 Z"/></g>
<g><path style="opacity:1" fill="#002dc5" d="M 661.5,314.5 C 719.331,313.501 777.331,313.168 835.5,313.5C 835.827,323.681 835.494,333.681 834.5,343.5C 834.5,333.833 834.5,324.167 834.5,314.5C 776.833,314.5 719.167,314.5 661.5,314.5 Z"/></g>
<g><path style="opacity:1" fill="#1536c7" d="M 834.5,774.5 C 835.133,646.834 835.466,519.168 835.5,391.5C 836.332,413.493 836.665,460.827 836.5,533.5C 836.754,624.512 836.087,704.845 834.5,774.5 Z"/></g>
<g><path style="opacity:1" fill="#085ad2" d="M 343.5,607.5 C 359.829,607.829 374.829,612.329 388.5,621C 392.77,624.761 396.437,628.928 399.5,633.5C 409.229,652.029 411.062,671.363 405,691.5C 403.001,696.832 400.501,701.832 397.5,706.5C 392.191,713.956 385.191,719.456 376.5,723C 367.196,726.761 357.53,728.928 347.5,729.5C 334.344,728.504 321.01,728.171 307.5,728.5C 307.5,750.167 307.5,771.833 307.5,793.5C 296.5,793.5 285.5,793.5 274.5,793.5C 274.5,731.833 274.5,670.167 274.5,608.5C 297.673,608.831 320.673,608.498 343.5,607.5 Z"/></g>
<g><path style="opacity:1" fill="#0a5ad2" d="M 508.5,607.5 C 536.652,607.5 560.485,617.5 580,637.5C 589.973,650.121 596.14,664.455 598.5,680.5C 598.5,693.5 598.5,706.5 598.5,719.5C 590.603,764.394 563.936,789.394 518.5,794.5C 493.339,793.502 468.005,793.169 442.5,793.5C 442.5,731.833 442.5,670.167 442.5,608.5C 464.673,608.831 486.673,608.497 508.5,607.5 Z"/></g>
<g><path style="opacity:1" fill="#085ad2" d="M 750.5,636.5 C 724.165,636.333 697.831,636.5 671.5,637C 670.944,637.383 670.611,637.883 670.5,638.5C 670.5,655.167 670.5,671.833 670.5,688.5C 692.994,689.497 715.661,689.831 738.5,689.5C 738.5,698.5 738.5,707.5 738.5,716.5C 715.661,716.169 692.994,716.503 670.5,717.5C 669.502,742.661 669.169,767.995 669.5,793.5C 658.5,793.5 647.5,793.5 636.5,793.5C 636.5,731.833 636.5,670.167 636.5,608.5C 674.5,608.5 712.5,608.5 750.5,608.5C 750.5,617.833 750.5,627.167 750.5,636.5 Z"/></g>
<g><path style="opacity:1" fill="#fafcfe" d="M 308.5,636.5 C 318.839,636.334 329.172,636.5 339.5,637C 346.01,637.336 352.343,638.502 358.5,640.5C 359.29,641.401 360.29,642.068 361.5,642.5C 372.464,649.856 376.964,660.189 375,673.5C 374.111,678.398 372.611,683.064 370.5,687.5C 364.705,693.4 357.705,697.233 349.5,699C 335.837,699.5 322.171,699.667 308.5,699.5C 308.5,678.5 308.5,657.5 308.5,636.5 Z"/></g>
<g><path style="opacity:1" fill="#0c37c9" d="M 308.5,636.5 C 319.993,635.341 331.659,635.174 343.5,636C 347.219,636.388 350.886,637.055 354.5,638C 356.919,638.29 358.253,639.124 358.5,640.5C 352.343,638.502 346.01,637.336 339.5,637C 329.172,636.5 318.839,636.334 308.5,636.5 Z"/></g>
<g><path style="opacity:1" fill="#fcfdfe" d="M 503.5,764.5 C 494.833,764.5 486.167,764.5 477.5,764.5C 477.5,722.167 477.5,679.833 477.5,637.5C 490.538,637.173 503.538,637.673 516.5,639C 540.562,643.061 555.729,656.895 562,680.5C 566.402,701.713 563.402,721.713 553,740.5C 540.203,756.148 523.703,764.148 503.5,764.5 Z"/></g>
<g><path style="opacity:1" fill="#0136c8" d="M 273.5,607.5 C 296.833,607.5 320.167,607.5 343.5,607.5C 320.673,608.498 297.673,608.831 274.5,608.5C 274.5,670.167 274.5,731.833 274.5,793.5C 285.5,793.5 296.5,793.5 307.5,793.5C 307.5,771.833 307.5,750.167 307.5,728.5C 321.01,728.171 334.344,728.504 347.5,729.5C 334.5,729.5 321.5,729.5 308.5,729.5C 308.831,751.673 308.497,773.673 307.5,795.5C 296.346,794.505 285.012,794.172 273.5,794.5C 273.5,732.167 273.5,669.833 273.5,607.5 Z"/></g>
<g><path style="opacity:1" fill="#0b3bc8" d="M 361.5,642.5 C 362.721,641.535 364.054,641.702 365.5,643C 374.933,652.215 378.433,663.382 376,676.5C 375.19,680.787 373.357,684.454 370.5,687.5C 372.611,683.064 374.111,678.398 375,673.5C 376.964,660.189 372.464,649.856 361.5,642.5 Z"/></g>
<g><path style="opacity:1" fill="#143cc9" d="M 399.5,633.5 C 407.139,643.601 410.473,655.101 409.5,668C 410.317,679.916 407.817,691.083 402,701.5C 400.951,703.618 399.451,705.284 397.5,706.5C 400.501,701.832 403.001,696.832 405,691.5C 411.062,671.363 409.229,652.029 399.5,633.5 Z"/></g>
<g><path style="opacity:1" fill="#0a3ac9" d="M 508.5,607.5 C 486.673,608.497 464.673,608.831 442.5,608.5C 442.5,670.167 442.5,731.833 442.5,793.5C 468.005,793.169 493.339,793.502 518.5,794.5C 492.846,795.4 467.18,795.734 441.5,795.5C 441.5,732.833 441.5,670.167 441.5,607.5C 463.833,607.5 486.167,607.5 508.5,607.5 Z"/></g>
<g><path style="opacity:1" fill="#8bb4ea" d="M 670.5,638.5 C 670.833,638.5 671.167,638.5 671.5,638.5C 671.5,654.833 671.5,671.167 671.5,687.5C 694.339,687.169 717.006,687.503 739.5,688.5C 716.5,688.5 693.5,688.5 670.5,688.5C 670.5,671.833 670.5,655.167 670.5,638.5 Z"/></g>
<g><path style="opacity:1" fill="#072ec5" d="M 598.5,680.5 C 599.81,693.497 599.81,706.497 598.5,719.5C 598.5,706.5 598.5,693.5 598.5,680.5 Z"/></g>
<g><path style="opacity:1" fill="#0238c9" d="M 188.5,695.5 C 188.5,729.833 188.5,764.167 188.5,798.5C 186.984,718.846 186.318,631.846 186.5,537.5C 186.667,479.5 186.833,421.5 187,363.5C 187.167,474.334 187.667,585.001 188.5,695.5 Z"/></g>
<g><path style="opacity:1" fill="#002cc6" d="M 670.5,688.5 C 693.5,688.5 716.5,688.5 739.5,688.5C 739.5,698.167 739.5,707.833 739.5,717.5C 716.5,717.5 693.5,717.5 670.5,717.5C 692.994,716.503 715.661,716.169 738.5,716.5C 738.5,707.5 738.5,698.5 738.5,689.5C 715.661,689.831 692.994,689.497 670.5,688.5 Z"/></g>
<g><path style="opacity:1" fill="#002fc6" d="M 477.5,764.5 C 486.167,764.5 494.833,764.5 503.5,764.5C 496.875,765.527 487.542,765.861 475.5,765.5C 475.333,722.832 475.5,680.165 476,637.5C 476.167,680.002 476.667,722.335 477.5,764.5 Z"/></g>
<g><path style="opacity:1" fill="#70a3e4" d="M 670.5,717.5 C 693.5,717.5 716.5,717.5 739.5,717.5C 717.006,718.497 694.339,718.831 671.5,718.5C 671.831,744.005 671.498,769.339 670.5,794.5C 670.5,768.833 670.5,743.167 670.5,717.5 Z"/></g>
<g><path style="opacity:1" fill="#1a6bd7" d="M 273.5,607.5 C 273.5,669.833 273.5,732.167 273.5,794.5C 285.012,794.172 296.346,794.505 307.5,795.5C 295.833,795.5 284.167,795.5 272.5,795.5C 272.168,732.664 272.501,669.998 273.5,607.5 Z"/></g>
<g><path style="opacity:1" fill="#002bc4" d="M 750.5,638.5 C 750.5,637.833 750.5,637.167 750.5,636.5C 750.5,627.167 750.5,617.833 750.5,608.5C 712.5,608.5 674.5,608.5 636.5,608.5C 636.5,670.167 636.5,731.833 636.5,793.5C 647.5,793.5 658.5,793.5 669.5,793.5C 669.169,767.995 669.502,742.661 670.5,717.5C 670.5,743.167 670.5,768.833 670.5,794.5C 658.833,794.5 647.167,794.5 635.5,794.5C 635.5,732.167 635.5,669.833 635.5,607.5C 674.167,607.5 712.833,607.5 751.5,607.5C 751.828,618.014 751.494,628.347 750.5,638.5 Z"/></g>
<g><path style="opacity:1" fill="#0047cd" d="M 750.5,636.5 C 750.5,637.167 750.5,637.833 750.5,638.5C 724.167,638.5 697.833,638.5 671.5,638.5C 671.167,638.5 670.833,638.5 670.5,638.5C 670.611,637.883 670.944,637.383 671.5,637C 697.831,636.5 724.165,636.333 750.5,636.5 Z"/></g>
<g><path style="opacity:1" fill="#1d47cd" d="M 875.5,727.5 C 875.655,770.172 875.322,812.839 874.5,855.5C 873.233,812.825 873.567,770.158 875.5,727.5 Z"/></g>
<g><path style="opacity:1" fill="#0d3ccb" d="M 189.5,829.5 C 189.084,844.55 189.584,859.55 191,874.5C 192.999,881.987 196.832,888.32 202.5,893.5C 198.566,891.402 195.4,888.402 193,884.5C 192,881.833 191,879.167 190,876.5C 188.913,867.883 188.413,859.216 188.5,850.5C 188.5,843.325 188.834,836.325 189.5,829.5 Z"/></g>
<g><path style="opacity:1" fill="#0437c9" d="M 843.5,927.5 C 832.202,935.64 819.535,940.14 805.5,941C 662.169,942.15 518.836,942.65 375.5,942.5C 521.006,941.879 666.673,940.713 812.5,939C 823.473,937.067 833.473,932.901 842.5,926.5C 843.107,926.624 843.44,926.957 843.5,927.5 Z"/></g>
</svg>
