<?xml version="1.0" encoding="UTF-8"?>
<!DOCTYPE svg PUBLIC "-//W3C//DTD SVG 1.1//EN" "http://www.w3.org/Graphics/SVG/1.1/DTD/svg11.dtd">
<svg xmlns="http://www.w3.org/2000/svg" version="1.1" width="1024px" height="1024px" style="shape-rendering:geometricPrecision; text-rendering:geometricPrecision; image-rendering:optimizeQuality; fill-rule:evenodd; clip-rule:evenodd" xmlns:xlink="http://www.w3.org/1999/xlink">
<g><path style="opacity:1" fill="#fefdfc" d="M -0.5,-0.5 C 340.833,-0.5 682.167,-0.5 1023.5,-0.5C 1023.5,340.833 1023.5,682.167 1023.5,1023.5C 682.167,1023.5 340.833,1023.5 -0.5,1023.5C -0.5,682.167 -0.5,340.833 -0.5,-0.5 Z"/></g>
<g><path style="opacity:1" fill="#2cbfa0" d="M 553.5,977.5 C 550.518,976.835 547.352,976.502 544,976.5C 523.668,977.044 503.502,977.71 483.5,978.5C 409.212,973.347 339.879,952.18 275.5,915C 269.422,911.639 263.755,907.805 258.5,903.5C 234.624,887.811 212.29,869.978 191.5,850C 190.563,849.308 189.897,849.475 189.5,850.5C 89.475,752.703 40.3083,633.37 42,492.5C 48.5857,353.512 103.752,238.345 207.5,147C 318.137,58.164 444.137,23.4974 585.5,43C 728.664,67.2749 838.83,140.442 916,262.5C 989.946,392.637 1002.61,528.637 954,670.5C 901.744,805.756 807.911,899.256 672.5,951C 633.92,964.749 594.253,973.583 553.5,977.5 Z"/></g>
<g><path style="opacity:1" fill="#fefdfc" d="M 675.5,396.5 C 686.139,405.728 688.306,416.728 682,429.5C 677.332,435.911 671.165,439.911 663.5,441.5C 656.356,441.619 650.023,439.452 644.5,435C 611.993,401.327 578.993,368.16 545.5,335.5C 542.871,332.369 540.038,329.369 537,326.5C 536.667,428.5 536.333,530.5 536,632.5C 534.93,636.311 533.097,639.644 530.5,642.5C 519.587,652.447 508.254,652.947 496.5,644C 493.707,640.919 491.54,637.419 490,633.5C 489.834,530.43 489.334,428.097 488.5,326.5C 486.167,328.167 484.167,330.167 482.5,332.5C 448.395,367.105 414.062,401.605 379.5,436C 373.778,439.848 367.444,441.682 360.5,441.5C 351.771,439.111 345.437,433.778 341.5,425.5C 338.063,416.302 339.563,407.968 346,400.5C 397.472,350.028 448.639,299.194 499.5,248C 501.066,247.392 502.4,246.558 503.5,245.5C 511.544,242.463 519.21,243.296 526.5,248C 576.035,297.701 625.701,347.201 675.5,396.5 Z"/></g>
<g><path style="opacity:1" fill="#2cb491" d="M 629.5,348.5 C 644.661,364.494 660.327,379.994 676.5,395C 675.944,395.383 675.611,395.883 675.5,396.5C 625.701,347.201 576.035,297.701 526.5,248C 519.21,243.296 511.544,242.463 503.5,245.5C 503.747,244.124 505.081,243.29 507.5,243C 514.717,241.595 521.384,242.929 527.5,247C 561.368,281.035 595.368,314.868 629.5,348.5 Z"/></g>
<g><path style="opacity:1" fill="#28b998" d="M 545.5,335.5 C 578.993,368.16 611.993,401.327 644.5,435C 650.023,439.452 656.356,441.619 663.5,441.5C 661.953,442.666 658.953,442.833 654.5,442C 652.649,441.163 650.816,440.329 649,439.5C 648.005,440.066 647.172,440.733 646.5,441.5C 645.069,442.446 643.736,443.612 642.5,445C 643.791,448.025 643.124,448.359 640.5,446C 641.451,445.282 641.617,444.449 641,443.5C 639.705,445.122 638.205,446.455 636.5,447.5C 633.71,446.085 632.21,447.085 632,450.5C 630.363,449.167 629.529,447.834 629.5,446.5C 627.775,447.015 626.108,447.682 624.5,448.5C 623.897,449.635 623.564,450.635 623.5,451.5C 622.702,449.922 622.202,448.256 622,446.5C 620.318,447.865 620.151,449.365 621.5,451C 621,451.5 620.5,452 620,452.5C 619.751,451.376 619.251,450.376 618.5,449.5C 617.548,451.045 617.215,452.712 617.5,454.5C 613.944,454.725 613.61,453.892 616.5,452C 615.525,448.959 613.691,447.793 611,448.5C 609.796,447.529 609.296,446.529 609.5,445.5C 608.614,446.325 608.281,447.325 608.5,448.5C 605.625,449.129 602.958,449.962 600.5,451C 600.335,449.883 600.002,448.716 599.5,447.5C 600.025,446.808 600.692,446.308 601.5,446C 599.355,444.046 597.188,442.879 595,442.5C 594.333,445.167 593.667,445.167 593,442.5C 592.316,443.784 592.483,444.951 593.5,446C 593,446.5 592.5,447 592,447.5C 589.646,446.264 587.646,444.597 586,442.5C 585.517,443.448 585.351,444.448 585.5,445.5C 584.448,445.649 583.448,445.483 582.5,445C 583.119,443.165 583.286,440.999 583,438.5C 581.796,439.471 581.296,440.471 581.5,441.5C 580.833,439.833 580.167,438.167 579.5,436.5C 579.748,438.8 579.082,441.134 577.5,443.5C 577.722,445.055 578.389,446.389 579.5,447.5C 579.167,447.833 578.833,448.167 578.5,448.5C 576.09,445.987 573.924,446.321 572,449.5C 570.667,448.167 569.333,446.833 568,445.5C 567.333,449.5 566.667,449.5 566,445.5C 564.251,446.299 562.918,445.632 562,443.5C 561.667,443.833 561.333,444.167 561,444.5C 561,443.167 561,441.833 561,440.5C 558.931,441.264 556.764,441.764 554.5,442C 553.788,443.425 553.621,444.925 554,446.5C 553.586,446.043 553.086,445.709 552.5,445.5C 549.41,446.895 546.743,448.895 544.5,451.5C 542.634,450.437 542.134,451.104 543,453.5C 543.718,452.549 544.551,452.383 545.5,453C 545.335,454.117 545.002,455.284 544.5,456.5C 545.025,457.192 545.692,457.692 546.5,458C 544.355,459.954 542.188,461.121 540,461.5C 540.055,424.14 539.555,386.807 538.5,349.5C 538.334,343.158 538.5,336.825 539,330.5C 541,332.5 543,334.5 545,336.5C 545.399,336.272 545.565,335.938 545.5,335.5 Z"/></g>
<g><path style="opacity:1" fill="#29bb9b" d="M 487.5,333.5 C 486.667,384.998 486.167,436.665 486,488.5C 484.284,488.589 482.451,488.256 480.5,487.5C 479.289,486.726 479.289,485.893 480.5,485C 478.981,483.649 477.648,482.149 476.5,480.5C 477.833,480.5 479.167,480.5 480.5,480.5C 479.689,479.784 479.022,478.95 478.5,478C 479.233,476.234 479.567,474.401 479.5,472.5C 483.172,471.955 482.838,471.622 478.5,471.5C 478.649,472.552 478.483,473.552 478,474.5C 477.791,472.311 478.125,470.311 479,468.5C 477.089,468.255 475.089,468.255 473,468.5C 472.833,468 472.667,467.5 472.5,467C 473.805,466.807 475.139,465.807 476.5,464C 474.745,463.28 473.911,462.113 474,460.5C 475,460.833 476,461.167 477,461.5C 477.833,460 479,458.833 480.5,458C 477.443,457.449 477.11,455.783 479.5,453C 478.167,451.333 478.167,449.667 479.5,448C 477.666,445.976 475.999,446.142 474.5,448.5C 475.383,449.548 476.05,450.715 476.5,452C 475.804,454.118 475.637,456.284 476,458.5C 475,457.167 474,455.833 473,454.5C 473.263,455.951 473.096,457.284 472.5,458.5C 471.146,456.816 469.479,456.316 467.5,457C 469.18,459.256 470.18,461.422 470.5,463.5C 469.081,465.336 467.914,467.336 467,469.5C 466.333,468.167 465.667,468.167 465,469.5C 464.76,467.023 465.594,464.856 467.5,463C 466.167,462.667 464.833,462.333 463.5,462C 464.451,461.282 464.617,460.449 464,459.5C 462.333,460.5 460.667,461.5 459,462.5C 458.667,461.5 458.333,460.5 458,459.5C 456.444,460.823 454.944,462.823 453.5,465.5C 453.167,465.333 452.833,465.167 452.5,465C 454.968,463.412 455.134,461.578 453,459.5C 452.751,460.624 452.251,461.624 451.5,462.5C 450.227,462.254 449.06,462.254 448,462.5C 447.333,463.833 446.667,465.167 446,466.5C 445.316,465.216 445.483,464.049 446.5,463C 445.167,463 443.833,463 442.5,463C 442.131,460.532 440.631,458.365 438,456.5C 436.89,458.397 436.724,460.23 437.5,462C 436.407,463.365 435.074,463.699 433.5,463C 433.888,461.475 433.888,459.808 433.5,458C 435.329,456.887 436.163,455.387 436,453.5C 434.4,454.866 432.567,455.866 430.5,456.5C 431.855,457.675 431.688,458.675 430,459.5C 430.216,456.968 429.216,454.634 427,452.5C 425.691,454.891 424.691,454.891 424,452.5C 422.762,454.435 422.262,456.435 422.5,458.5C 421.037,458.632 419.537,458.965 418,459.5C 417.5,459.333 417,459.167 416.5,459C 419.521,458.151 420.021,456.651 418,454.5C 417.043,456.709 415.876,456.543 414.5,454C 415.5,453.667 416.5,453.333 417.5,453C 416.562,451.937 415.562,450.77 414.5,449.5C 414.891,450.891 414.058,451.891 412,452.5C 411.88,448.707 410.046,447.207 406.5,448C 407.253,449.487 408.086,449.654 409,448.5C 411.134,450.578 410.968,452.412 408.5,454C 412.19,454.424 412.357,455.258 409,456.5C 408.085,455.672 407.419,454.672 407,453.5C 406.261,454.574 405.261,455.241 404,455.5C 402.667,454.167 401.333,454.167 400,455.5C 399.5,455.167 399,454.833 398.5,454.5C 399.313,453.186 400.313,452.019 401.5,451C 400.207,450.51 398.873,450.343 397.5,450.5C 397.643,452.262 397.309,453.929 396.5,455.5C 398.85,457.613 398.683,459.946 396,462.5C 394.84,460.203 393.84,460.536 393,463.5C 392.193,461.423 391.026,459.589 389.5,458C 391.972,456.907 393.972,455.24 395.5,453C 394.285,450.904 393.451,451.071 393,453.5C 392.581,452.328 391.915,451.328 391,450.5C 389.612,451.554 388.112,451.72 386.5,451C 387.833,450.333 389.167,449.667 390.5,449C 388.665,448.072 388.332,446.906 389.5,445.5C 387.653,444.17 386.153,444.503 385,446.5C 384.316,445.216 384.483,444.049 385.5,443C 384.5,442.333 383.5,442.333 382.5,443C 383.711,443.893 383.711,444.726 382.5,445.5C 381.614,444.675 381.281,443.675 381.5,442.5C 380.5,442.5 379.5,442.5 378.5,442.5C 378.657,441.127 378.49,439.793 378,438.5C 375.688,439.814 373.688,441.481 372,443.5C 367.434,442.977 363.6,442.311 360.5,441.5C 367.444,441.682 373.778,439.848 379.5,436C 414.062,401.605 448.395,367.105 482.5,332.5C 482.435,332.938 482.601,333.272 483,333.5C 484.333,332.167 485.667,330.833 487,329.5C 487.49,330.793 487.657,332.127 487.5,333.5 Z"/></g>
<g><path style="opacity:1" fill="#2bbd9e" d="M 530.5,642.5 C 530.435,642.938 530.601,643.272 531,643.5C 534.639,639.89 536.972,635.556 538,630.5C 538.5,614.837 538.667,599.17 538.5,583.5C 539.496,583.414 540.329,583.748 541,584.5C 541.333,583.167 541.667,581.833 542,580.5C 544.975,584.201 545.141,588.034 542.5,592C 544.479,590.699 546.812,589.866 549.5,589.5C 549.451,586.901 548.451,584.734 546.5,583C 546.833,582.667 547.167,582.333 547.5,582C 546.167,581.667 544.833,581.333 543.5,581C 544.108,580.13 544.941,579.63 546,579.5C 547.422,580.205 548.755,580.539 550,580.5C 549.981,578.893 549.815,577.226 549.5,575.5C 547.127,576.294 544.794,577.294 542.5,578.5C 541.432,576.813 541.599,575.146 543,573.5C 544.388,574.554 545.888,574.72 547.5,574C 545.979,570.314 547.313,567.314 551.5,565C 551.167,564.667 550.833,564.333 550.5,564C 551.5,563.667 552.5,563.333 553.5,563C 552.206,560.91 551.206,558.91 550.5,557C 552.583,555.68 552.249,554.346 549.5,553C 551.569,552.676 551.902,551.842 550.5,550.5C 551.522,549.646 552.355,548.646 553,547.5C 554.645,547.693 556.479,547.86 558.5,548C 558.833,548.333 559.167,548.667 559.5,549C 558.376,549.249 557.376,549.749 556.5,550.5C 557.962,550.065 558.962,550.898 559.5,553C 559.095,553.945 558.428,554.612 557.5,555C 559.833,555.667 562.167,555.667 564.5,555C 560.469,552.794 560.636,552.294 565,553.5C 567.664,550.846 568.664,547.846 568,544.5C 568.654,545.696 569.154,545.696 569.5,544.5C 568.674,543.549 568.508,542.549 569,541.5C 570.241,543.421 571.741,543.754 573.5,542.5C 569.731,540.235 566.398,537.402 563.5,534C 564.55,531.077 566.383,529.91 569,530.5C 569,529.167 569,527.833 569,526.5C 569.75,527.126 570.584,527.626 571.5,528C 570.346,528.914 570.513,529.747 572,530.5C 571.922,526.342 573.922,524.009 578,523.5C 578.199,521.598 579.033,520.098 580.5,519C 579.833,518.667 579.167,518.333 578.5,518C 579.667,517.5 580.5,516.667 581,515.5C 581.667,516.833 582.333,516.833 583,515.5C 583.419,516.672 584.085,517.672 585,518.5C 585.617,519.449 585.451,520.282 584.5,521C 585.449,521.617 586.282,521.451 587,520.5C 588.191,523.534 590.358,525.201 593.5,525.5C 593.216,523.123 593.216,520.956 593.5,519C 592.5,518.667 591.5,518.333 590.5,518C 591.743,516.846 592.743,515.512 593.5,514C 592.433,511.902 591.933,509.735 592,507.5C 592.333,507.833 592.667,508.167 593,508.5C 593.739,507.426 594.739,506.759 596,506.5C 599.068,508.515 601.068,510.848 602,513.5C 603.119,512.448 603.619,511.281 603.5,510C 604.449,509.383 605.282,509.549 606,510.5C 607.214,508.951 608.714,507.785 610.5,507C 609.692,506.692 609.025,506.192 608.5,505.5C 610.341,504.77 612.175,504.103 614,503.5C 614.688,502.668 614.521,502.002 613.5,501.5C 612.833,502.167 612.167,502.833 611.5,503.5C 611.015,501.223 611.681,499.056 613.5,497C 616.199,497.438 618.865,497.272 621.5,496.5C 620.502,493.972 619.669,493.972 619,496.5C 618.506,494.866 618.34,493.199 618.5,491.5C 620.226,491.815 621.893,491.981 623.5,492C 621.5,490.667 619.5,489.333 617.5,488C 619.443,484.668 620.61,484.834 621,488.5C 621.333,487.833 621.667,487.167 622,486.5C 623.333,488.167 624.667,489.833 626,491.5C 626.915,490.672 627.581,489.672 628,488.5C 629.364,489.258 630.531,488.758 631.5,487C 631.167,486.667 630.833,486.333 630.5,486C 632.221,485.261 633.887,484.427 635.5,483.5C 635.291,482.914 634.957,482.414 634.5,482C 636.884,480.59 638.55,478.59 639.5,476C 636.833,475.333 636.833,474.667 639.5,474C 638.692,473.692 638.025,473.192 637.5,472.5C 638.529,472.704 639.529,472.204 640.5,471C 638.545,470.047 636.878,468.713 635.5,467C 636.819,465.372 638.152,465.539 639.5,467.5C 640.506,467.062 640.506,466.396 639.5,465.5C 640.325,464.614 641.325,464.281 642.5,464.5C 641.599,461.128 641.599,457.795 642.5,454.5C 643.645,455.776 643.645,457.109 642.5,458.5C 643.898,460.13 644.898,461.964 645.5,464C 644.833,464.333 644.167,464.667 643.5,465C 645.367,465.711 646.867,465.211 648,463.5C 649.364,464.258 650.531,463.758 651.5,462C 650.167,461.333 648.833,460.667 647.5,460C 649.078,458.86 650.744,458.36 652.5,458.5C 653.251,459.376 653.751,460.376 654,461.5C 654.318,459.939 655.151,458.772 656.5,458C 656.042,455.602 654.708,453.936 652.5,453C 653.854,451.706 655.188,451.54 656.5,452.5C 658.659,449.722 657.992,447.389 654.5,445.5C 654.089,446.262 653.923,447.262 654,448.5C 652.391,447.853 650.891,447.02 649.5,446C 651.421,444.759 651.754,443.259 650.5,441.5C 649.522,441.977 648.689,442.643 648,443.5C 647.722,442.584 647.222,441.918 646.5,441.5C 647.172,440.733 648.005,440.066 649,439.5C 650.816,440.329 652.649,441.163 654.5,442C 658.953,442.833 661.953,442.666 663.5,441.5C 671.165,439.911 677.332,435.911 682,429.5C 688.306,416.728 686.139,405.728 675.5,396.5C 675.611,395.883 675.944,395.383 676.5,395C 660.327,379.994 644.661,364.494 629.5,348.5C 629.833,346.5 630.167,344.5 630.5,342.5C 631.552,342.351 632.552,342.517 633.5,343C 633.167,343.333 632.833,343.667 632.5,344C 635.763,344.869 636.096,346.203 633.5,348C 635.412,351.107 637.579,351.607 640,349.5C 640.359,352.544 641.026,352.878 642,350.5C 642.667,351.833 643.333,351.833 644,350.5C 646.695,355.945 649.361,356.279 652,351.5C 652.333,352.5 652.667,353.5 653,354.5C 653.402,353.128 653.902,351.795 654.5,350.5C 656.41,349.288 656.744,349.621 655.5,351.5C 657.869,354.977 658.536,358.644 657.5,362.5C 656.022,362.238 654.689,362.571 653.5,363.5C 652.36,365.409 652.36,367.243 653.5,369C 654.5,369.667 655.5,369.667 656.5,369C 658.301,367.613 658.968,366.113 658.5,364.5C 659.262,365.628 659.929,366.795 660.5,368C 661.449,368.617 662.282,368.451 663,367.5C 665.639,370.45 667.473,373.783 668.5,377.5C 669.552,377.351 670.552,377.517 671.5,378C 670.304,378.654 670.304,379.154 671.5,379.5C 673.701,377.944 673.701,376.777 671.5,376C 673.32,374.195 674.486,372.028 675,369.5C 676.596,371.936 678.429,372.436 680.5,371C 679.322,370.033 677.989,369.533 676.5,369.5C 675.145,368.325 675.312,367.325 677,366.5C 678.667,367.167 680.333,367.833 682,368.5C 682.691,366.109 683.691,366.109 685,368.5C 685.17,366.155 684.837,363.821 684,361.5C 682.612,362.554 681.112,362.72 679.5,362C 680.167,361.667 680.833,361.333 681.5,361C 680.549,360.282 680.383,359.449 681,358.5C 681.739,359.574 682.739,360.241 684,360.5C 689.899,358.966 693.733,361.466 695.5,368C 694.324,369.914 693.324,369.748 692.5,367.5C 690.997,368.59 690.664,369.757 691.5,371C 689.833,372 688.167,373 686.5,374C 688.23,375.852 689.396,375.686 690,373.5C 690.157,375.995 690.324,378.328 690.5,380.5C 689.998,381.521 689.332,381.688 688.5,381C 688.273,379.865 687.94,378.698 687.5,377.5C 685.914,379.173 685.247,381.173 685.5,383.5C 686.822,383.67 687.989,383.337 689,382.5C 691.096,383.715 690.929,384.549 688.5,385C 690.912,387.035 690.245,388.035 686.5,388C 688.974,390.428 688.474,390.928 685,389.5C 683.881,390.552 683.381,391.719 683.5,393C 684.851,394.814 685.851,394.481 686.5,392C 689.176,391.383 689.843,392.216 688.5,394.5C 689.616,394.402 690.616,394.902 691.5,396C 692.736,397.856 692.736,399.689 691.5,401.5C 692.167,401.833 692.833,402.167 693.5,402.5C 693.015,405.112 693.849,405.112 696,402.5C 696.167,403 696.333,403.5 696.5,404C 695.804,406.407 695.471,408.74 695.5,411C 696.471,412.204 697.471,412.704 698.5,412.5C 697.053,414.403 695.386,416.07 693.5,417.5C 695.636,418.472 696.803,420.139 697,422.5C 697.654,421.304 698.154,421.304 698.5,422.5C 697.926,424.059 697.26,425.559 696.5,427C 698.017,428.779 698.851,428.279 699,425.5C 700.565,426.062 702.399,426.562 704.5,427C 702.487,426.125 702.487,424.791 704.5,423C 702,422.167 701.833,421 704,419.5C 705.398,420.051 706.732,420.384 708,420.5C 709.516,417.949 710.349,418.282 710.5,421.5C 705.167,421.833 705.167,422.167 710.5,422.5C 711.035,425.238 710.035,427.072 707.5,428C 709.061,428.318 710.228,429.151 711,430.5C 713.778,429.315 715.278,430.315 715.5,433.5C 718.263,434.455 717.263,434.622 712.5,434C 710.951,432.786 709.785,431.286 709,429.5C 707.887,430.76 707.72,431.927 708.5,433C 707.747,434.487 706.914,434.654 706,433.5C 703.415,437.024 703.415,440.691 706,444.5C 706.704,441.054 708.037,441.054 710,444.5C 712.929,440.866 714.596,441.533 715,446.5C 713.951,445.483 712.784,445.316 711.5,446C 712.931,446.465 714.097,447.299 715,448.5C 715.333,448.167 715.667,447.833 716,447.5C 716.637,449.303 717.803,450.636 719.5,451.5C 715.608,454.811 711.275,457.311 706.5,459C 707.634,460.016 707.301,460.683 705.5,461C 706.191,462.067 706.691,463.234 707,464.5C 708.147,463.542 709.147,463.875 710,465.5C 710.617,466.449 710.451,467.282 709.5,468C 711.659,471.318 712.325,471.151 711.5,467.5C 712.925,464.124 714.259,463.957 715.5,467C 715.108,468.011 714.441,468.511 713.5,468.5C 713.833,469.5 714.5,470.167 715.5,470.5C 716.395,468.754 717.062,466.92 717.5,465C 717.85,463.743 718.517,463.409 719.5,464C 719.167,464.333 718.833,464.667 718.5,465C 721.269,468.001 722.436,471.501 722,475.5C 721.395,473.519 720.395,473.185 719,474.5C 718.707,470.02 717.874,469.687 716.5,473.5C 717.313,474.814 718.313,475.981 719.5,477C 717.68,477.979 716.513,479.479 716,481.5C 715.586,481.043 715.086,480.709 714.5,480.5C 712.913,482.085 712.08,483.752 712,485.5C 710.603,482.693 708.769,482.193 706.5,484C 707.634,485.016 707.301,485.683 705.5,486C 707.307,487.602 709.307,488.936 711.5,490C 711.33,491.57 710.997,493.403 710.5,495.5C 707.402,495.413 707.068,495.913 709.5,497C 708.328,497.419 707.328,498.085 706.5,499C 711.621,500.423 711.621,501.423 706.5,502C 706.957,502.414 707.291,502.914 707.5,503.5C 706.271,504.281 704.938,504.781 703.5,505C 705.167,507.333 706.833,509.667 708.5,512C 707.365,512.749 706.365,512.583 705.5,511.5C 705.081,510.328 704.415,509.328 703.5,508.5C 703.253,510.539 702.753,512.872 702,515.5C 700.213,516.343 698.38,516.51 696.5,516C 697.701,516.903 698.535,518.069 699,519.5C 699.561,518.978 700.228,518.645 701,518.5C 702.326,519.799 703.66,521.132 705,522.5C 705.423,521.044 706.256,520.544 707.5,521C 706.289,521.893 706.289,522.726 707.5,523.5C 708.833,519.5 710.167,519.5 711.5,523.5C 712.62,522.167 713.953,521.667 715.5,522C 713.557,524.331 711.224,525.664 708.5,526C 710.595,525.444 710.762,524.944 709,524.5C 707.5,525 706,525.5 704.5,526C 706.481,526.605 706.815,527.605 705.5,529C 707.521,529.401 708.855,530.568 709.5,532.5C 708.066,534.22 707.233,536.22 707,538.5C 705.755,538.539 704.422,538.205 703,537.5C 700.756,537.867 700.256,538.867 701.5,540.5C 698.939,542.607 697.106,545.274 696,548.5C 694.933,549.191 693.766,549.691 692.5,550C 691.167,550.667 691.167,551.333 692.5,552C 689.237,552.869 688.904,554.203 691.5,556C 688.701,556.406 687.367,555.072 687.5,552C 689.391,544.527 688.391,543.86 684.5,550C 685.28,551.073 685.113,552.24 684,553.5C 682.266,552.751 680.433,552.251 678.5,552C 677.773,550.601 677.273,549.101 677,547.5C 676.333,549.833 676.333,552.167 677,554.5C 677.654,553.304 678.154,553.304 678.5,554.5C 676.993,555.739 675.826,555.405 675,553.5C 674.667,554.5 674.333,555.5 674,556.5C 671.875,553.341 669.042,551.508 665.5,551C 668.767,553.444 668.767,555.277 665.5,556.5C 666.833,557.167 668.167,557.833 669.5,558.5C 669.377,560.378 669.377,562.211 669.5,564C 670.167,564.667 670.833,565.333 671.5,566C 668.526,567.506 668.193,569.172 670.5,571C 668.754,571.471 667.087,572.138 665.5,573C 667.878,573.974 667.544,574.641 664.5,575C 663,578.011 662.166,577.511 662,573.5C 661.51,574.793 661.343,576.127 661.5,577.5C 659.508,577.672 657.842,577.005 656.5,575.5C 655.41,576.727 654.076,577.56 652.5,578C 654.769,581.755 657.436,585.755 660.5,590C 659.551,590.617 658.718,590.451 658,589.5C 657.833,589.833 657.667,590.167 657.5,590.5C 658.376,591.251 659.376,591.751 660.5,592C 658.077,592.732 656.91,594.232 657,596.5C 658.439,594.986 659.939,594.653 661.5,595.5C 662.187,593.445 663.354,591.779 665,590.5C 666.772,591.99 666.939,593.657 665.5,595.5C 667.946,596.427 668.779,598.094 668,600.5C 667.481,599.484 666.647,598.818 665.5,598.5C 663.181,599.064 660.847,599.564 658.5,600C 657.167,600.667 657.167,601.333 658.5,602C 656.071,602.451 655.904,603.285 658,604.5C 658.75,603.874 659.584,603.374 660.5,603C 659.167,602.333 659.167,601.667 660.5,601C 665.096,598.017 666.429,599.017 664.5,604C 665.799,605.326 667.132,606.66 668.5,608C 667.285,610.096 666.451,609.929 666,607.5C 665.517,608.448 665.351,609.448 665.5,610.5C 667.57,611.226 669.237,611.892 670.5,612.5C 668.913,614.085 668.08,615.752 668,617.5C 667.07,615.064 665.903,612.731 664.5,610.5C 663.635,609.417 662.635,609.251 661.5,610C 663.875,611.51 663.709,613.01 661,614.5C 658.824,613.484 657.657,611.818 657.5,609.5C 656.5,609.5 655.5,609.5 654.5,609.5C 654.833,612.167 655.167,614.833 655.5,617.5C 659.214,617.013 662.214,618.179 664.5,621C 664,621.5 663.5,622 663,622.5C 662.5,620.667 661.333,619.5 659.5,619C 657.385,619.23 655.385,619.23 653.5,619C 653.725,621.319 655.058,623.319 657.5,625C 655.86,627.776 656.527,629.776 659.5,631C 658.483,632.049 658.316,633.216 659,634.5C 659.451,632.071 660.285,631.904 661.5,634C 657.071,637.626 657.238,639.793 662,640.5C 663.653,640.18 664.653,639.18 665,637.5C 665.49,638.793 665.657,640.127 665.5,641.5C 664.448,641.351 663.448,641.517 662.5,642C 663.634,643.016 663.301,643.683 661.5,644C 662.448,644.483 663.448,644.649 664.5,644.5C 664.617,646.484 663.95,648.15 662.5,649.5C 665.044,651.392 665.044,653.225 662.5,655C 664.055,656.646 665.721,656.979 667.5,656C 665.167,657.5 662.833,659 660.5,660.5C 661.587,661.105 662.754,660.772 664,659.5C 665.067,660.191 666.234,660.691 667.5,661C 666.286,662.979 664.619,664.479 662.5,665.5C 663.032,667.741 664.365,669.241 666.5,670C 665.101,670.595 663.768,670.428 662.5,669.5C 662.891,670.718 662.224,671.552 660.5,672C 661.701,672.903 662.535,674.069 663,675.5C 664.333,672.833 665.667,672.833 667,675.5C 667.308,674.692 667.808,674.025 668.5,673.5C 669.967,673.723 671.467,674.056 673,674.5C 673.684,673.216 673.517,672.049 672.5,671C 673.744,670.544 674.577,671.044 675,672.5C 675.87,671.892 676.37,671.059 676.5,670C 675.351,668.27 675.351,666.604 676.5,665C 675.5,664.667 674.5,664.333 673.5,664C 674.872,663.598 676.205,663.098 677.5,662.5C 677.587,664.703 677.587,666.87 677.5,669C 681.449,669.807 681.449,670.307 677.5,670.5C 677.938,673.893 677.105,676.893 675,679.5C 674.517,678.552 674.351,677.552 674.5,676.5C 671.245,676.186 668.078,676.186 665,676.5C 663.833,676.833 662.667,677.167 661.5,677.5C 660.59,680.814 659.257,681.148 657.5,678.5C 658.911,676.983 658.744,675.649 657,674.5C 656.667,676.833 656.333,679.167 656,681.5C 655.222,677.944 653.222,676.61 650,677.5C 648.309,675.291 648.476,673.458 650.5,672C 648.686,669.588 646.352,668.588 643.5,669C 644.328,669.915 645.328,670.581 646.5,671C 645.333,672.167 644.167,673.333 643,674.5C 642.444,672.405 641.944,672.238 641.5,674C 641.905,674.945 642.572,675.612 643.5,676C 639.114,680.122 635.448,679.789 632.5,675C 633.451,674.282 633.617,673.449 633,672.5C 632.261,673.574 631.261,674.241 630,674.5C 628.246,672.886 626.246,671.553 624,670.5C 622.065,672.408 622.231,674.242 624.5,676C 624.389,677.722 623.889,677.888 623,676.5C 622.667,677.833 622.333,679.167 622,680.5C 620.667,676.5 619.333,676.5 618,680.5C 615.808,679.601 613.642,678.601 611.5,677.5C 610.522,677.977 609.689,678.643 609,679.5C 608.333,676.833 607.667,676.833 607,679.5C 605.688,677.342 604.022,677.009 602,678.5C 601.667,677.833 601.333,677.167 601,676.5C 600.691,677.766 600.191,678.933 599.5,680C 596.854,680.497 594.187,680.664 591.5,680.5C 591.649,679.448 591.483,678.448 591,677.5C 590,679.167 589,680.833 588,682.5C 587.333,679.833 586.667,679.833 586,682.5C 585.612,680.285 584.612,678.952 583,678.5C 581.084,681.033 579.084,681.033 577,678.5C 576.667,679.167 576.333,679.833 576,680.5C 574.667,677.833 573.333,677.833 572,680.5C 571.259,679.359 570.425,679.359 569.5,680.5C 569.5,679.167 569.5,677.833 569.5,676.5C 568.262,678.734 566.596,679.068 564.5,677.5C 560.084,681.58 554.75,683.413 548.5,683C 597.335,683.167 646.002,683.667 694.5,684.5C 561.833,684.5 429.167,684.5 296.5,684.5C 349.332,683.667 402.332,683.167 455.5,683C 452.788,680.679 452.455,678.345 454.5,676C 454,675.5 453.5,675 453,674.5C 452.408,677.4 450.908,679.233 448.5,680C 448.957,679.586 449.291,679.086 449.5,678.5C 448.833,678.167 448.167,677.833 447.5,677.5C 448.689,676.571 450.022,676.238 451.5,676.5C 451.89,671.578 450.723,671.244 448,675.5C 447,674.5 446,673.5 445,672.5C 443.272,674.194 443.772,675.361 446.5,676C 445.167,676.667 445.167,677.333 446.5,678C 444.833,677.667 443.167,677.333 441.5,677C 441.833,678 442.167,679 442.5,680C 440.06,681.38 438.227,680.547 437,677.5C 434.419,679.897 431.586,680.063 428.5,678C 433.543,676.261 434.543,673.261 431.5,669C 434.028,668.331 434.028,667.498 431.5,666.5C 430.253,668.006 430.253,669.506 431.5,671C 429.899,671.273 428.399,671.773 427,672.5C 425.304,671.485 423.137,670.985 420.5,671C 422.784,672.363 422.951,673.863 421,675.5C 420.667,675.167 420.333,674.833 420,674.5C 416.538,674.983 416.038,676.15 418.5,678C 417.833,678.167 417.167,678.333 416.5,678.5C 414.5,677.167 412.5,675.833 410.5,674.5C 409.833,674.667 409.167,674.833 408.5,675C 409.428,675.388 410.095,676.055 410.5,677C 408.931,678.193 408.097,679.36 408,680.5C 406.439,678.854 404.439,676.854 402,674.5C 401.667,675.5 401.333,676.5 401,677.5C 400.333,676.167 399.667,676.167 399,677.5C 398.544,676.256 399.044,675.423 400.5,675C 399.069,674.535 397.903,673.701 397,672.5C 396.517,673.448 396.351,674.448 396.5,675.5C 394.173,675.247 392.173,675.914 390.5,677.5C 390.089,676.738 389.923,675.738 390,674.5C 389.333,675.833 388.667,675.833 388,674.5C 387.683,676.301 387.016,676.634 386,675.5C 384.176,676.749 384.343,677.915 386.5,679C 383.921,679.432 382.421,678.265 382,675.5C 381.667,676.5 381.333,677.5 381,678.5C 379.525,673.576 377.192,673.242 374,677.5C 372.601,676.773 371.101,676.273 369.5,676C 373.648,675.816 376.314,674.982 377.5,673.5C 378.995,670.809 379.995,668.142 380.5,665.5C 380.167,664.5 379.5,663.833 378.5,663.5C 378.167,664.167 377.833,664.833 377.5,665.5C 373.044,661.996 373.711,658.83 379.5,656C 378.944,653.763 377.944,651.763 376.5,650C 377.996,649.493 379.163,649.993 380,651.5C 381.676,649.685 382.509,647.851 382.5,646C 381.167,645.333 379.833,645.333 378.5,646C 380.883,647.197 380.55,648.03 377.5,648.5C 375.61,647.388 373.61,646.554 371.5,646C 371.833,645.667 372.167,645.333 372.5,645C 371.643,644.311 370.977,643.478 370.5,642.5C 371.59,641.391 371.59,640.391 370.5,639.5C 369.757,640.908 368.923,642.241 368,643.5C 366.844,642.007 366.01,642.174 365.5,644C 366.205,645.422 366.539,646.755 366.5,648C 364.925,647.621 363.425,647.788 362,648.5C 363.188,645.885 364.188,642.551 365,638.5C 365.662,642.353 366.496,642.353 367.5,638.5C 367.182,637.353 366.516,636.519 365.5,636C 368,635.167 368.167,634 366,632.5C 363.79,636.57 363.29,636.403 364.5,632C 364.049,628.662 363.049,628.162 361.5,630.5C 363.991,631.541 363.991,632.374 361.5,633C 361.833,633.333 362.167,633.667 362.5,634C 359.266,634.633 356.266,635.633 353.5,637C 354.218,638.987 355.218,640.821 356.5,642.5C 357.651,643.731 358.817,643.731 360,642.5C 360.374,643.416 360.874,644.25 361.5,645C 359.393,646.264 358.393,648.097 358.5,650.5C 356.801,650.66 355.134,650.494 353.5,650C 354.5,649.667 355.5,649.333 356.5,649C 354.007,645.442 351.174,642.275 348,639.5C 346.337,640.99 344.67,641.656 343,641.5C 341.902,640.033 340.402,639.199 338.5,639C 339.833,638.667 341.167,638.333 342.5,638C 342.259,636.438 342.759,634.938 344,633.5C 345,633.833 346,634.167 347,634.5C 346.852,633.175 347.018,632.008 347.5,631C 345.806,629.272 344.639,629.772 344,632.5C 340.576,631.412 337.243,631.412 334,632.5C 330.317,630.52 330.15,629.02 333.5,628C 332.151,627.228 331.318,626.061 331,624.5C 330.667,625.167 330.333,625.833 330,626.5C 328.829,625.107 327.329,624.273 325.5,624C 326.634,622.984 326.301,622.317 324.5,622C 325.662,619.184 326.829,616.35 328,613.5C 329.744,614.03 331.244,614.03 332.5,613.5C 329.965,611.6 328.298,609.1 327.5,606C 328.5,605.333 329.5,605.333 330.5,606C 329.663,607.011 329.33,608.178 329.5,609.5C 333.893,609.543 334.226,609.043 330.5,608C 332.235,607.349 333.902,607.515 335.5,608.5C 335.64,607.431 335.64,606.264 335.5,605C 336.793,604.51 338.127,604.343 339.5,604.5C 339.5,603.167 339.5,601.833 339.5,600.5C 343.789,600.256 344.456,598.589 341.5,595.5C 339.162,597.011 338.496,596.677 339.5,594.5C 341.193,593.772 342.693,592.772 344,591.5C 345.832,592.858 347.665,593.192 349.5,592.5C 347.18,591.023 345.847,589.19 345.5,587C 347.947,585.771 348.113,584.271 346,582.5C 343.827,585.277 343.327,585.11 344.5,582C 343.643,581.311 342.977,580.478 342.5,579.5C 344.69,578.777 346.69,577.61 348.5,576C 346.285,574.609 346.285,572.943 348.5,571C 347.833,570.667 347.167,570.333 346.5,570C 348.584,569.222 350.417,568.055 352,566.5C 350.93,569.222 351.763,571.388 354.5,573C 355.013,574.576 354.346,575.909 352.5,577C 352.833,577.5 353.167,578 353.5,578.5C 354.519,577.313 355.686,576.313 357,575.5C 358,575.833 359,576.167 360,576.5C 360.706,574.029 360.373,571.695 359,569.5C 358.751,570.624 358.251,571.624 357.5,572.5C 357.167,572.333 356.833,572.167 356.5,572C 360.371,568.413 362.204,563.913 362,558.5C 362.471,560.246 363.138,561.913 364,563.5C 364.5,562.5 365,561.5 365.5,560.5C 362.71,557.078 362.877,556.411 366,558.5C 366.492,557.451 366.326,556.451 365.5,555.5C 367.348,552.522 369.348,552.188 371.5,554.5C 371.833,554.167 372.167,553.833 372.5,553.5C 370.539,551.887 368.206,550.887 365.5,550.5C 363.854,551.779 362.687,553.445 362,555.5C 361.727,553.899 361.227,552.399 360.5,551C 362.569,550.676 362.902,549.842 361.5,548.5C 358.758,546.013 356.091,546.013 353.5,548.5C 352.522,548.023 351.689,547.357 351,546.5C 351.063,549.767 349.563,551.934 346.5,553C 347.815,554.395 347.481,555.395 345.5,556C 347.001,557.252 348.668,558.252 350.5,559C 347.332,561.175 345.165,560.341 344,556.5C 344.138,558.49 344.638,560.49 345.5,562.5C 345.167,563.167 344.833,563.833 344.5,564.5C 344.124,562.66 343.124,560.827 341.5,559C 342.604,557.869 342.271,557.035 340.5,556.5C 338.519,557.105 338.185,558.105 339.5,559.5C 337.61,560.424 336.11,561.757 335,563.5C 331.841,562.255 332.007,561.088 335.5,560C 335.165,558.497 335.165,557.164 335.5,556C 337.577,555.808 339.577,555.308 341.5,554.5C 340.975,553.808 340.308,553.308 339.5,553C 340.956,552.577 341.456,551.744 341,550.5C 340.282,551.451 339.449,551.617 338.5,551C 342.217,548.321 342.384,545.488 339,542.5C 338.465,544.271 337.631,544.604 336.5,543.5C 335.5,541.5 334.5,539.5 333.5,537.5C 334.711,536.28 334.711,535.113 333.5,534C 334.449,533.383 335.282,533.549 336,534.5C 336.667,533.5 336.667,532.5 336,531.5C 334.732,531.616 333.398,531.949 332,532.5C 332.077,531.262 331.911,530.262 331.5,529.5C 329.355,532.19 326.689,533.69 323.5,534C 325.15,530.699 327.15,527.699 329.5,525C 328.833,523.667 327.833,522.667 326.5,522C 327.766,521.691 328.933,521.191 330,520.5C 330.333,520.833 330.667,521.167 331,521.5C 331.483,520.552 331.649,519.552 331.5,518.5C 328.854,518.108 326.354,518.108 324,518.5C 320.708,517.61 320.041,515.943 322,513.5C 322.317,515.301 322.984,515.634 324,514.5C 325.586,515.376 327.086,516.376 328.5,517.5C 330.042,516.253 331.542,516.253 333,517.5C 332.852,518.825 333.018,519.992 333.5,521C 332.833,521.667 332.167,522.333 331.5,523C 333.246,523.471 334.913,524.138 336.5,525C 332.073,525.573 331.407,527.407 334.5,530.5C 334.64,529.431 334.64,528.264 334.5,527C 337.105,527.09 339.771,526.423 342.5,525C 341.78,522.878 340.613,522.378 339,523.5C 338.082,521.368 336.749,520.701 335,521.5C 334.544,520.256 335.044,519.423 336.5,519C 333.972,518.331 333.972,517.498 336.5,516.5C 337.7,517.531 339.034,518.365 340.5,519C 339.167,519.667 339.167,520.333 340.5,521C 342.101,521.273 343.601,521.773 345,522.5C 345.167,522.167 345.333,521.833 345.5,521.5C 344.271,520.719 342.938,520.219 341.5,520C 342.641,519.259 342.641,518.425 341.5,517.5C 343.93,514.501 347.264,511.834 351.5,509.5C 350.359,508.575 350.359,507.741 351.5,507C 350.833,506.333 350.167,505.667 349.5,505C 351.009,503.326 351.676,501.66 351.5,500C 348.223,500.785 345.057,501.285 342,501.5C 341.544,500.256 342.044,499.423 343.5,499C 342.874,498.25 342.374,497.416 342,496.5C 340.773,500.407 338.606,501.074 335.5,498.5C 336.848,498.55 338.348,498.217 340,497.5C 341.852,495.77 341.686,494.604 339.5,494C 339.833,493.667 340.167,493.333 340.5,493C 339.234,492.691 338.067,492.191 337,491.5C 334.679,496.323 331.512,496.823 327.5,493C 328.424,492.15 328.424,491.15 327.5,490C 327.833,489.5 328.167,489 328.5,488.5C 329.696,488.846 329.696,489.346 328.5,490C 330.773,489.683 331.773,488.183 331.5,485.5C 332.833,485.5 334.167,485.5 335.5,485.5C 335.799,483.396 335.466,481.396 334.5,479.5C 333.604,480.506 332.938,480.506 332.5,479.5C 334.028,478.139 335.695,476.972 337.5,476C 336.167,475.333 336.167,474.667 337.5,474C 335.5,473 333.5,472 331.5,471C 332.264,468.722 333.43,466.222 335,463.5C 336.117,463.665 337.284,463.998 338.5,464.5C 339.5,462.833 340.833,461.5 342.5,460.5C 337.841,456.428 334.841,451.762 333.5,446.5C 338.39,446.361 338.723,444.861 334.5,442C 335.676,440.086 336.676,440.252 337.5,442.5C 338.308,442.192 338.975,441.692 339.5,441C 338.328,440.581 337.328,439.915 336.5,439C 340.673,435.756 340.34,434.256 335.5,434.5C 336.376,433.749 337.376,433.249 338.5,433C 337.376,432.751 336.376,432.251 335.5,431.5C 336.365,431.436 337.365,431.103 338.5,430.5C 339.696,428.855 340.696,427.189 341.5,425.5C 345.437,433.778 351.771,439.111 360.5,441.5C 363.6,442.311 367.434,442.977 372,443.5C 373.688,441.481 375.688,439.814 378,438.5C 378.49,439.793 378.657,441.127 378.5,442.5C 379.5,442.5 380.5,442.5 381.5,442.5C 381.281,443.675 381.614,444.675 382.5,445.5C 383.711,444.726 383.711,443.893 382.5,443C 383.5,442.333 384.5,442.333 385.5,443C 384.483,444.049 384.316,445.216 385,446.5C 386.153,444.503 387.653,444.17 389.5,445.5C 388.332,446.906 388.665,448.072 390.5,449C 389.167,449.667 387.833,450.333 386.5,451C 388.112,451.72 389.612,451.554 391,450.5C 391.915,451.328 392.581,452.328 393,453.5C 393.451,451.071 394.285,450.904 395.5,453C 393.972,455.24 391.972,456.907 389.5,458C 391.026,459.589 392.193,461.423 393,463.5C 393.84,460.536 394.84,460.203 396,462.5C 398.683,459.946 398.85,457.613 396.5,455.5C 397.309,453.929 397.643,452.262 397.5,450.5C 398.873,450.343 400.207,450.51 401.5,451C 400.313,452.019 399.313,453.186 398.5,454.5C 399,454.833 399.5,455.167 400,455.5C 401.333,454.167 402.667,454.167 404,455.5C 405.261,455.241 406.261,454.574 407,453.5C 407.419,454.672 408.085,455.672 409,456.5C 412.357,455.258 412.19,454.424 408.5,454C 410.968,452.412 411.134,450.578 409,448.5C 408.086,449.654 407.253,449.487 406.5,448C 410.046,447.207 411.88,448.707 412,452.5C 414.058,451.891 414.891,450.891 414.5,449.5C 415.562,450.77 416.562,451.937 417.5,453C 416.5,453.333 415.5,453.667 414.5,454C 415.876,456.543 417.043,456.709 418,454.5C 420.021,456.651 419.521,458.151 416.5,459C 417,459.167 417.5,459.333 418,459.5C 419.537,458.965 421.037,458.632 422.5,458.5C 422.262,456.435 422.762,454.435 424,452.5C 424.691,454.891 425.691,454.891 427,452.5C 429.216,454.634 430.216,456.968 430,459.5C 431.688,458.675 431.855,457.675 430.5,456.5C 432.567,455.866 434.4,454.866 436,453.5C 436.163,455.387 435.329,456.887 433.5,458C 433.888,459.808 433.888,461.475 433.5,463C 435.074,463.699 436.407,463.365 437.5,462C 436.724,460.23 436.89,458.397 438,456.5C 440.631,458.365 442.131,460.532 442.5,463C 443.833,463 445.167,463 446.5,463C 445.483,464.049 445.316,465.216 446,466.5C 446.667,465.167 447.333,463.833 448,462.5C 449.06,462.254 450.227,462.254 451.5,462.5C 452.251,461.624 452.751,460.624 453,459.5C 455.134,461.578 454.968,463.412 452.5,465C 452.833,465.167 453.167,465.333 453.5,465.5C 454.944,462.823 456.444,460.823 458,459.5C 458.333,460.5 458.667,461.5 459,462.5C 460.667,461.5 462.333,460.5 464,459.5C 464.617,460.449 464.451,461.282 463.5,462C 464.833,462.333 466.167,462.667 467.5,463C 465.594,464.856 464.76,467.023 465,469.5C 465.667,468.167 466.333,468.167 467,469.5C 467.914,467.336 469.081,465.336 470.5,463.5C 470.18,461.422 469.18,459.256 467.5,457C 469.479,456.316 471.146,456.816 472.5,458.5C 473.096,457.284 473.263,455.951 473,454.5C 474,455.833 475,457.167 476,458.5C 475.637,456.284 475.804,454.118 476.5,452C 476.05,450.715 475.383,449.548 474.5,448.5C 475.999,446.142 477.666,445.976 479.5,448C 478.167,449.667 478.167,451.333 479.5,453C 477.11,455.783 477.443,457.449 480.5,458C 479,458.833 477.833,460 477,461.5C 476,461.167 475,460.833 474,460.5C 473.911,462.113 474.745,463.28 476.5,464C 475.139,465.807 473.805,466.807 472.5,467C 472.667,467.5 472.833,468 473,468.5C 475.089,468.255 477.089,468.255 479,468.5C 478.125,470.311 477.791,472.311 478,474.5C 478.483,473.552 478.649,472.552 478.5,471.5C 482.838,471.622 483.172,471.955 479.5,472.5C 479.567,474.401 479.233,476.234 478.5,478C 479.022,478.95 479.689,479.784 480.5,480.5C 479.167,480.5 477.833,480.5 476.5,480.5C 477.648,482.149 478.981,483.649 480.5,485C 479.289,485.893 479.289,486.726 480.5,487.5C 482.451,488.256 484.284,488.589 486,488.5C 486.167,436.665 486.667,384.998 487.5,333.5C 487.333,431.834 487.5,530.167 488,628.5C 488.5,527.834 488.667,427.167 488.5,326.5C 489.334,428.097 489.834,530.43 490,633.5C 491.54,637.419 493.707,640.919 496.5,644C 508.254,652.947 519.587,652.447 530.5,642.5 Z"/></g>
<g><path style="opacity:1" fill="#2abc9b" d="M 538.5,349.5 C 539.555,386.807 540.055,424.14 540,461.5C 542.188,461.121 544.355,459.954 546.5,458C 545.692,457.692 545.025,457.192 544.5,456.5C 545.002,455.284 545.335,454.117 545.5,453C 544.551,452.383 543.718,452.549 543,453.5C 542.134,451.104 542.634,450.437 544.5,451.5C 546.743,448.895 549.41,446.895 552.5,445.5C 553.086,445.709 553.586,446.043 554,446.5C 553.621,444.925 553.788,443.425 554.5,442C 556.764,441.764 558.931,441.264 561,440.5C 561,441.833 561,443.167 561,444.5C 561.333,444.167 561.667,443.833 562,443.5C 562.918,445.632 564.251,446.299 566,445.5C 566.667,449.5 567.333,449.5 568,445.5C 569.333,446.833 570.667,448.167 572,449.5C 573.924,446.321 576.09,445.987 578.5,448.5C 578.833,448.167 579.167,447.833 579.5,447.5C 578.389,446.389 577.722,445.055 577.5,443.5C 579.082,441.134 579.748,438.8 579.5,436.5C 580.167,438.167 580.833,439.833 581.5,441.5C 581.296,440.471 581.796,439.471 583,438.5C 583.286,440.999 583.119,443.165 582.5,445C 583.448,445.483 584.448,445.649 585.5,445.5C 585.351,444.448 585.517,443.448 586,442.5C 587.646,444.597 589.646,446.264 592,447.5C 592.5,447 593,446.5 593.5,446C 592.483,444.951 592.316,443.784 593,442.5C 593.667,445.167 594.333,445.167 595,442.5C 597.188,442.879 599.355,444.046 601.5,446C 600.692,446.308 600.025,446.808 599.5,447.5C 600.002,448.716 600.335,449.883 600.5,451C 602.958,449.962 605.625,449.129 608.5,448.5C 608.281,447.325 608.614,446.325 609.5,445.5C 609.296,446.529 609.796,447.529 611,448.5C 613.691,447.793 615.525,448.959 616.5,452C 613.61,453.892 613.944,454.725 617.5,454.5C 617.215,452.712 617.548,451.045 618.5,449.5C 619.251,450.376 619.751,451.376 620,452.5C 620.5,452 621,451.5 621.5,451C 620.151,449.365 620.318,447.865 622,446.5C 622.202,448.256 622.702,449.922 623.5,451.5C 623.564,450.635 623.897,449.635 624.5,448.5C 626.108,447.682 627.775,447.015 629.5,446.5C 629.529,447.834 630.363,449.167 632,450.5C 632.21,447.085 633.71,446.085 636.5,447.5C 638.205,446.455 639.705,445.122 641,443.5C 641.617,444.449 641.451,445.282 640.5,446C 643.124,448.359 643.791,448.025 642.5,445C 643.736,443.612 645.069,442.446 646.5,441.5C 647.222,441.918 647.722,442.584 648,443.5C 648.689,442.643 649.522,441.977 650.5,441.5C 651.754,443.259 651.421,444.759 649.5,446C 650.891,447.02 652.391,447.853 654,448.5C 653.923,447.262 654.089,446.262 654.5,445.5C 657.992,447.389 658.659,449.722 656.5,452.5C 655.188,451.54 653.854,451.706 652.5,453C 654.708,453.936 656.042,455.602 656.5,458C 655.151,458.772 654.318,459.939 654,461.5C 653.751,460.376 653.251,459.376 652.5,458.5C 650.744,458.36 649.078,458.86 647.5,460C 648.833,460.667 650.167,461.333 651.5,462C 650.531,463.758 649.364,464.258 648,463.5C 646.867,465.211 645.367,465.711 643.5,465C 644.167,464.667 644.833,464.333 645.5,464C 644.898,461.964 643.898,460.13 642.5,458.5C 643.645,457.109 643.645,455.776 642.5,454.5C 641.599,457.795 641.599,461.128 642.5,464.5C 641.325,464.281 640.325,464.614 639.5,465.5C 640.506,466.396 640.506,467.062 639.5,467.5C 638.152,465.539 636.819,465.372 635.5,467C 636.878,468.713 638.545,470.047 640.5,471C 639.529,472.204 638.529,472.704 637.5,472.5C 638.025,473.192 638.692,473.692 639.5,474C 636.833,474.667 636.833,475.333 639.5,476C 638.55,478.59 636.884,480.59 634.5,482C 634.957,482.414 635.291,482.914 635.5,483.5C 633.887,484.427 632.221,485.261 630.5,486C 630.833,486.333 631.167,486.667 631.5,487C 630.531,488.758 629.364,489.258 628,488.5C 627.581,489.672 626.915,490.672 626,491.5C 624.667,489.833 623.333,488.167 622,486.5C 621.667,487.167 621.333,487.833 621,488.5C 620.61,484.834 619.443,484.668 617.5,488C 619.5,489.333 621.5,490.667 623.5,492C 621.893,491.981 620.226,491.815 618.5,491.5C 618.34,493.199 618.506,494.866 619,496.5C 619.669,493.972 620.502,493.972 621.5,496.5C 618.865,497.272 616.199,497.438 613.5,497C 611.681,499.056 611.015,501.223 611.5,503.5C 612.167,502.833 612.833,502.167 613.5,501.5C 614.521,502.002 614.688,502.668 614,503.5C 612.175,504.103 610.341,504.77 608.5,505.5C 609.025,506.192 609.692,506.692 610.5,507C 608.714,507.785 607.214,508.951 606,510.5C 605.282,509.549 604.449,509.383 603.5,510C 603.619,511.281 603.119,512.448 602,513.5C 601.068,510.848 599.068,508.515 596,506.5C 594.739,506.759 593.739,507.426 593,508.5C 592.667,508.167 592.333,507.833 592,507.5C 591.933,509.735 592.433,511.902 593.5,514C 592.743,515.512 591.743,516.846 590.5,518C 591.5,518.333 592.5,518.667 593.5,519C 593.216,520.956 593.216,523.123 593.5,525.5C 590.358,525.201 588.191,523.534 587,520.5C 586.282,521.451 585.449,521.617 584.5,521C 585.451,520.282 585.617,519.449 585,518.5C 584.085,517.672 583.419,516.672 583,515.5C 582.333,516.833 581.667,516.833 581,515.5C 580.5,516.667 579.667,517.5 578.5,518C 579.167,518.333 579.833,518.667 580.5,519C 579.033,520.098 578.199,521.598 578,523.5C 573.922,524.009 571.922,526.342 572,530.5C 570.513,529.747 570.346,528.914 571.5,528C 570.584,527.626 569.75,527.126 569,526.5C 569,527.833 569,529.167 569,530.5C 566.383,529.91 564.55,531.077 563.5,534C 566.398,537.402 569.731,540.235 573.5,542.5C 571.741,543.754 570.241,543.421 569,541.5C 568.508,542.549 568.674,543.549 569.5,544.5C 569.154,545.696 568.654,545.696 568,544.5C 568.664,547.846 567.664,550.846 565,553.5C 560.636,552.294 560.469,552.794 564.5,555C 562.167,555.667 559.833,555.667 557.5,555C 558.428,554.612 559.095,553.945 559.5,553C 558.962,550.898 557.962,550.065 556.5,550.5C 557.376,549.749 558.376,549.249 559.5,549C 559.167,548.667 558.833,548.333 558.5,548C 556.479,547.86 554.645,547.693 553,547.5C 552.355,548.646 551.522,549.646 550.5,550.5C 551.902,551.842 551.569,552.676 549.5,553C 552.249,554.346 552.583,555.68 550.5,557C 551.206,558.91 552.206,560.91 553.5,563C 552.5,563.333 551.5,563.667 550.5,564C 550.833,564.333 551.167,564.667 551.5,565C 547.313,567.314 545.979,570.314 547.5,574C 545.888,574.72 544.388,574.554 543,573.5C 541.599,575.146 541.432,576.813 542.5,578.5C 544.794,577.294 547.127,576.294 549.5,575.5C 549.815,577.226 549.981,578.893 550,580.5C 548.755,580.539 547.422,580.205 546,579.5C 544.941,579.63 544.108,580.13 543.5,581C 544.833,581.333 546.167,581.667 547.5,582C 547.167,582.333 546.833,582.667 546.5,583C 548.451,584.734 549.451,586.901 549.5,589.5C 546.812,589.866 544.479,590.699 542.5,592C 545.141,588.034 544.975,584.201 542,580.5C 541.667,581.833 541.333,583.167 541,584.5C 540.329,583.748 539.496,583.414 538.5,583.5C 538.5,505.5 538.5,427.5 538.5,349.5 Z"/></g>
<g><path style="opacity:1" fill="#03ac83" d="M 488.5,326.5 C 488.667,427.167 488.5,527.834 488,628.5C 487.5,530.167 487.333,431.834 487.5,333.5C 487.657,332.127 487.49,330.793 487,329.5C 485.667,330.833 484.333,332.167 483,333.5C 482.601,333.272 482.435,332.938 482.5,332.5C 484.167,330.167 486.167,328.167 488.5,326.5 Z"/></g>
<g><path style="opacity:1" fill="#2ab692" d="M 545.5,335.5 C 545.565,335.938 545.399,336.272 545,336.5C 543,334.5 541,332.5 539,330.5C 538.5,336.825 538.334,343.158 538.5,349.5C 538.5,427.5 538.5,505.5 538.5,583.5C 538.667,599.17 538.5,614.837 538,630.5C 536.972,635.556 534.639,639.89 531,643.5C 530.601,643.272 530.435,642.938 530.5,642.5C 533.097,639.644 534.93,636.311 536,632.5C 536.333,530.5 536.667,428.5 537,326.5C 540.038,329.369 542.871,332.369 545.5,335.5 Z"/></g>
<g><path style="opacity:1" fill="#02ad85" d="M 296.5,684.5 C 429.167,684.5 561.833,684.5 694.5,684.5C 707.907,684.056 721.24,684.556 734.5,686C 743.011,689.287 747.678,695.12 748.5,703.5C 745.432,693.601 738.765,687.768 728.5,686C 584.167,685.5 439.834,685.333 295.5,685.5C 294.443,684.794 294.776,684.461 296.5,684.5 Z"/></g>
<g><path style="opacity:1" fill="#fefdfc" d="M 295.5,685.5 C 439.834,685.333 584.167,685.5 728.5,686C 738.765,687.768 745.432,693.601 748.5,703.5C 750.918,717.064 745.918,726.731 733.5,732.5C 586.861,733.662 440.194,733.829 293.5,733C 288.523,731.503 284.19,729.003 280.5,725.5C 270.925,706.548 275.925,693.215 295.5,685.5 Z"/></g>
<g><path style="opacity:1" fill="#0fb792" d="M 280.5,725.5 C 284.19,729.003 288.523,731.503 293.5,733C 440.194,733.829 586.861,733.662 733.5,732.5C 734.738,732.81 734.738,733.31 733.5,734C 731.833,734.333 730.167,734.667 728.5,735C 584.167,735.667 439.833,735.667 295.5,735C 292.007,734.058 288.674,732.725 285.5,731C 282.921,729.924 281.254,728.091 280.5,725.5 Z"/></g>
<g><path style="opacity:1" fill="#23b48f" d="M 189.5,850.5 C 189.897,849.475 190.563,849.308 191.5,850C 212.29,869.978 234.624,887.811 258.5,903.5C 233.524,888.539 210.524,870.872 189.5,850.5 Z"/></g>
<g><path style="opacity:1" fill="#2fb492" d="M 553.5,977.5 C 530.184,979.471 506.85,979.804 483.5,978.5C 503.502,977.71 523.668,977.044 544,976.5C 547.352,976.502 550.518,976.835 553.5,977.5 Z"/></g>
</svg>
