<?xml version="1.0" encoding="UTF-8"?>
<svg version="1.1" xmlns="http://www.w3.org/2000/svg" width="128" height="128">
<path d="M0 0 C3.14742068 2.52356532 6.10994379 5.18673272 9 8 C9.66 5.03 10.32 2.06 11 -1 C13.3125 -1.6875 13.3125 -1.6875 16 -2 C17.6496582 -0.85229492 17.6496582 -0.85229492 19 1 C19.34057617 3.4519043 19.34057617 3.4519043 19.29296875 6.32421875 C19.28330078 7.35224609 19.27363281 8.38027344 19.26367188 9.43945312 C19.23853516 10.51130859 19.21339844 11.58316406 19.1875 12.6875 C19.16719727 14.31268555 19.16719727 14.31268555 19.14648438 15.97070312 C19.11110643 18.64763405 19.06174189 21.32356838 19 24 C19.68707031 23.98477295 20.37414062 23.9695459 21.08203125 23.95385742 C22.43361328 23.93609253 22.43361328 23.93609253 23.8125 23.91796875 C25.15248047 23.89512817 25.15248047 23.89512817 26.51953125 23.87182617 C29.74006354 24.03824147 31.54733599 24.93056474 34 27 C36.15146646 30.22719969 36.25479948 31.11341964 36.2746582 34.83520508 C36.28419022 35.81664993 36.29372223 36.79809479 36.30354309 37.8092804 C36.30217598 39.39835457 36.30217598 39.39835457 36.30078125 41.01953125 C36.30506638 42.11085861 36.3093515 43.20218597 36.31376648 44.32658386 C36.31951325 46.63739325 36.3200075 48.94822073 36.31567383 51.2590332 C36.31252167 54.78823936 36.33594245 58.31660112 36.36132812 61.84570312 C36.3636019 64.09114478 36.36430425 66.33658868 36.36328125 68.58203125 C36.372491 69.63534134 36.38170074 70.68865143 36.39118958 71.77388 C36.35645375 77.29979712 36.07999428 81.21552897 33 86 C32.2265625 87.2684375 32.2265625 87.2684375 31.4375 88.5625 C25.5163138 94.4836862 19.76008889 96.25186564 11.51000977 96.34057617 C7.66772306 96.2996364 3.83853801 96.17734519 0 96 C-0.2475 96.61875 -0.495 97.2375 -0.75 97.875 C-2.27846439 100.47338946 -3.15911555 101.04004419 -6 102 C-9.05859375 102.30078125 -9.05859375 102.30078125 -12.4375 102.3125 C-13.54996094 102.32925781 -14.66242188 102.34601563 -15.80859375 102.36328125 C-20.28634275 101.8535742 -22.85658648 100.14341352 -26 97 C-26.93489689 93.18849728 -27.3878281 90.89812823 -25.8125 87.25 C-22.91794789 83.6567629 -21.20611683 82.14958544 -16.50390625 81.56640625 C-15.20324219 81.56511719 -13.90257813 81.56382813 -12.5625 81.5625 C-11.26441406 81.54316406 -9.96632813 81.52382812 -8.62890625 81.50390625 C-4.52659517 82.06471734 -2.850904 83.05022072 0 86 C0 86.66 0 87.32 0 88 C2.54320516 87.91240742 5.08316933 87.80546587 7.625 87.6875 C8.33785156 87.66494141 9.05070312 87.64238281 9.78515625 87.61914062 C15.75685792 87.31781623 20.12048355 86.03190968 24.3125 81.5 C27.11456313 77.34879536 27.2471403 73.723101 27.5625 68.8125 C27.68818359 66.90404297 27.68818359 66.90404297 27.81640625 64.95703125 C27.87699219 63.98121094 27.93757813 63.00539063 28 62 C24.37 62 20.74 62 17 62 C16.01 63.98 16.01 63.98 15 66 C13.3359375 67.6328125 13.3359375 67.6328125 11.375 69.125 C10.74335937 69.62257813 10.11171875 70.12015625 9.4609375 70.6328125 C2.37623708 74.56875718 -5.36211886 74.3072601 -13.2421875 74.30078125 C-14.40573761 74.30506638 -15.56928772 74.3093515 -16.76809692 74.31376648 C-19.22055411 74.31948956 -21.67302827 74.32002502 -24.12548828 74.31567383 C-27.85609204 74.312516 -31.58590045 74.33599237 -35.31640625 74.36132812 C-37.70833234 74.36360169 -40.10026055 74.36430435 -42.4921875 74.36328125 C-43.59666229 74.372491 -44.70113708 74.38170074 -45.83908081 74.39118958 C-54.36470852 74.34083192 -63.17182193 73.58528075 -69.625 67.4375 C-70.27726562 66.83808594 -70.92953125 66.23867187 -71.6015625 65.62109375 C-73 64 -73 64 -73 62 C-73.88042969 62.04640625 -74.76085937 62.0928125 -75.66796875 62.140625 C-76.82941406 62.17671875 -77.99085937 62.2128125 -79.1875 62.25 C-80.91033203 62.31960937 -80.91033203 62.31960937 -82.66796875 62.390625 C-86.63979862 61.9249943 -88.18771485 60.77629613 -91 58 C-93.10267836 53.79464329 -92.18492744 48.24531241 -92.1875 43.625 C-92.19974609 42.47515625 -92.21199219 41.3253125 -92.22460938 40.140625 C-92.22654297 39.03460938 -92.22847656 37.92859375 -92.23046875 36.7890625 C-92.23457764 35.77537598 -92.23868652 34.76168945 -92.24291992 33.71728516 C-91.89730484 29.85125918 -90.90915007 27.79550631 -88 25.25 C-84.88790473 23.95329364 -83.13206917 23.86798589 -79.8125 23.921875 C-78.91144531 23.9331543 -78.01039062 23.94443359 -77.08203125 23.95605469 C-76.39496094 23.97055664 -75.70789063 23.98505859 -75 24 C-75.01571045 23.31897217 -75.0314209 22.63794434 -75.04760742 21.9362793 C-75.10993222 18.85343719 -75.14898258 15.77072756 -75.1875 12.6875 C-75.21263672 11.61564453 -75.23777344 10.54378906 -75.26367188 9.43945312 C-75.27333984 8.41142578 -75.28300781 7.38339844 -75.29296875 6.32421875 C-75.3086792 5.37635498 -75.32438965 4.42849121 -75.34057617 3.4519043 C-75 1 -75 1 -73.6496582 -0.85229492 C-72 -2 -72 -2 -69.3125 -1.6875 C-68.549375 -1.460625 -67.78625 -1.23375 -67 -1 C-66.34 1.97 -65.68 4.94 -65 8 C-64.19949219 7.22076172 -64.19949219 7.22076172 -63.3828125 6.42578125 C-45.89399004 -9.94351451 -20.54809513 -13.1641455 0 0 Z " fill="#D6E2EF" transform="translate(92,17)"/>
<path d="M0 0 C0 0.33 0 0.66 0 1 C-1.98 1 -3.96 1 -6 1 C-6 11.23 -6 21.46 -6 32 C-10.2075 32.0928125 -10.2075 32.0928125 -14.5 32.1875 C-21.32130935 32.47920674 -26.98863792 32.87243242 -32 38 C-34.98825501 41.45516986 -35.48296788 44.44485018 -35.28515625 49.01171875 C-34.64092933 53.50365711 -32.77698214 56.28129152 -29.5 59.3125 C-26.23024316 61.51958587 -23.62494968 62.1250025 -19.76953125 62.31640625 C-19.04612549 62.35451416 -18.32271973 62.39262207 -17.57739258 62.43188477 C-16.66497803 62.47498779 -15.75256348 62.51809082 -14.8125 62.5625 C-11.904375 62.706875 -8.99625 62.85125 -6 63 C-6 69.27 -6 75.54 -6 82 C-10.29205586 82.08149473 -14.58253903 82.14074602 -18.875 82.1875 C-20.07898437 82.21263672 -21.28296875 82.23777344 -22.5234375 82.26367188 C-31.60051167 82.33766976 -40.70582021 82.02922889 -47.625 75.4375 C-48.27726562 74.83808594 -48.92953125 74.23867187 -49.6015625 73.62109375 C-51 72 -51 72 -51 70 C-51.88042969 70.04640625 -52.76085937 70.0928125 -53.66796875 70.140625 C-54.82941406 70.17671875 -55.99085937 70.2128125 -57.1875 70.25 C-58.91033203 70.31960937 -58.91033203 70.31960937 -60.66796875 70.390625 C-64.63979862 69.9249943 -66.18771485 68.77629613 -69 66 C-71.10267836 61.79464329 -70.18492744 56.24531241 -70.1875 51.625 C-70.19974609 50.47515625 -70.21199219 49.3253125 -70.22460938 48.140625 C-70.22654297 47.03460938 -70.22847656 45.92859375 -70.23046875 44.7890625 C-70.23457764 43.77537598 -70.23868652 42.76168945 -70.24291992 41.71728516 C-69.89730484 37.85125918 -68.90915007 35.79550631 -66 33.25 C-62.88790473 31.95329364 -61.13206917 31.86798589 -57.8125 31.921875 C-56.91144531 31.9331543 -56.01039062 31.94443359 -55.08203125 31.95605469 C-54.39496094 31.97055664 -53.70789063 31.98505859 -53 32 C-53.01571045 31.31897217 -53.0314209 30.63794434 -53.04760742 29.9362793 C-53.10993222 26.85343719 -53.14898258 23.77072756 -53.1875 20.6875 C-53.21263672 19.61564453 -53.23777344 18.54378906 -53.26367188 17.43945312 C-53.27333984 16.41142578 -53.28300781 15.38339844 -53.29296875 14.32421875 C-53.3086792 13.37635498 -53.32438965 12.42849121 -53.34057617 11.4519043 C-53 9 -53 9 -51.6496582 7.14770508 C-50 6 -50 6 -47.3125 6.3125 C-46.549375 6.539375 -45.78625 6.76625 -45 7 C-44.34 9.97 -43.68 12.94 -43 16 C-42.19949219 15.22076172 -42.19949219 15.22076172 -41.3828125 14.42578125 C-29.44246768 3.24978376 -16.25411617 -0.77812258 0 0 Z " fill="#EFF4F9" transform="translate(70,9)"/>
<path d="M0 0 C2.375 0.8125 2.375 0.8125 3.375 2.8125 C3.45949628 4.5529417 3.48223024 6.29659722 3.47265625 8.0390625 C3.46943359 9.0703125 3.46621094 10.1015625 3.46289062 11.1640625 C3.45032227 12.78441406 3.45032227 12.78441406 3.4375 14.4375 C3.43298828 15.52546875 3.42847656 16.6134375 3.42382812 17.734375 C3.41201776 20.42713789 3.39554778 23.11979188 3.375 25.8125 C4.06207031 25.79727295 4.74914062 25.7820459 5.45703125 25.76635742 C6.80861328 25.74859253 6.80861328 25.74859253 8.1875 25.73046875 C9.08082031 25.7152417 9.97414062 25.70001465 10.89453125 25.68432617 C14.11506354 25.85074147 15.92233599 26.74306474 18.375 28.8125 C20.52646646 32.03969969 20.62979948 32.92591964 20.6496582 36.64770508 C20.66395622 38.11987236 20.66395622 38.11987236 20.67854309 39.6217804 C20.67763168 40.68116318 20.67672028 41.74054596 20.67578125 42.83203125 C20.68006638 43.92335861 20.6843515 45.01468597 20.68876648 46.13908386 C20.69451325 48.44989325 20.6950075 50.76072073 20.69067383 53.0715332 C20.68752167 56.60073936 20.71094245 60.12910112 20.73632812 63.65820312 C20.7386019 65.90364478 20.73930425 68.14908868 20.73828125 70.39453125 C20.747491 71.44784134 20.75670074 72.50115143 20.76618958 73.58638 C20.73145375 79.11229712 20.45499428 83.02802897 17.375 87.8125 C16.6015625 89.0809375 16.6015625 89.0809375 15.8125 90.375 C9.8913138 96.2961862 4.13508889 98.06436564 -4.11499023 98.15307617 C-7.95727694 98.1121364 -11.78646199 97.98984519 -15.625 97.8125 C-15.8725 98.43125 -16.12 99.05 -16.375 99.6875 C-17.90346439 102.28588946 -18.78411555 102.85254419 -21.625 103.8125 C-24.68359375 104.11328125 -24.68359375 104.11328125 -28.0625 104.125 C-29.17496094 104.14175781 -30.28742188 104.15851563 -31.43359375 104.17578125 C-35.91134275 103.6660742 -38.48158648 101.95591352 -41.625 98.8125 C-42.55989689 95.00099728 -43.0128281 92.71062823 -41.4375 89.0625 C-38.54294789 85.4692629 -36.83111683 83.96208544 -32.12890625 83.37890625 C-30.82824219 83.37761719 -29.52757813 83.37632813 -28.1875 83.375 C-26.88941406 83.35566406 -25.59132813 83.33632812 -24.25390625 83.31640625 C-20.15159517 83.87721734 -18.475904 84.86272072 -15.625 87.8125 C-15.625 88.4725 -15.625 89.1325 -15.625 89.8125 C-13.08179484 89.72490742 -10.54183067 89.61796587 -8 89.5 C-7.28714844 89.47744141 -6.57429688 89.45488281 -5.83984375 89.43164062 C0.13185792 89.13031623 4.49548355 87.84440968 8.6875 83.3125 C11.48956313 79.16129536 11.6221403 75.535601 11.9375 70.625 C12.02128906 69.35269531 12.10507813 68.08039063 12.19140625 66.76953125 C12.28228516 65.30580078 12.28228516 65.30580078 12.375 63.8125 C8.745 63.8125 5.115 63.8125 1.375 63.8125 C1.86097656 62.71421875 2.34695312 61.6159375 2.84765625 60.484375 C4.76591245 55.34340317 4.8715785 50.50334833 4.8125 45.0625 C4.80492676 44.08893555 4.79735352 43.11537109 4.78955078 42.11230469 C4.5647773 32.28461744 2.44190532 24.90274123 -2.875 16.625 C-5.48631729 12.52622349 -6.26048377 9.55593729 -6.12890625 4.72265625 C-5.19301295 1.17496768 -3.65491653 -0.26106547 0 0 Z " fill="#00337A" transform="translate(107.625,15.1875)"/>
<path d="M0 0 C0.84954254 -0.00570007 1.69908508 -0.01140015 2.57437134 -0.01727295 C4.37150835 -0.02671605 6.16866263 -0.03325419 7.96582031 -0.03710938 C10.70929287 -0.04681391 13.45201577 -0.07784285 16.1953125 -0.109375 C17.94270389 -0.11590551 19.69010063 -0.12115579 21.4375 -0.125 C22.2553598 -0.1373468 23.0732196 -0.1496936 23.91586304 -0.16241455 C30.27691171 -0.13764625 33.41280944 1.43670555 38.1640625 5.765625 C40.88320658 9.2247893 41.0137623 12.44061554 40.76171875 16.73828125 C40.11413045 20.62997856 38.98664609 23.26861487 36.3515625 26.203125 C31.09241655 29.79959067 26.20643956 30.80442064 19.94140625 30.734375 C18.78470177 30.74011536 18.78470177 30.74011536 17.60462952 30.74597168 C15.98697592 30.74867417 14.36927738 30.7414304 12.75170898 30.72460938 C10.29115578 30.70314326 7.83351168 30.72448007 5.37304688 30.75 C3.7916603 30.747357 2.21027551 30.74223258 0.62890625 30.734375 C-0.09732437 30.74247192 -0.82355499 30.75056885 -1.5717926 30.75891113 C-6.98772713 30.66057027 -10.16123654 29.25127274 -14.6484375 26.203125 C-18.74856111 21.77930743 -20.01188694 18.35012405 -19.93359375 12.265625 C-19.34017853 7.9735259 -16.73598667 5.15885003 -13.5859375 2.390625 C-9.25675649 -0.262744 -4.90552258 0.02536521 0 0 Z " fill="#05459F" transform="translate(53.6484375,41.796875)"/>
<path d="M0 0 C3.196875 -0.061875 6.39375 -0.12375 9.6875 -0.1875 C11.18543091 -0.22846802 11.18543091 -0.22846802 12.71362305 -0.27026367 C19.52987517 -0.33413384 22.72367099 0.92601134 27.8125 5.5625 C30.53094679 9.02077724 30.65479627 12.2351465 30.421875 16.53125 C29.61642139 21.24464521 27.72243885 24.53045892 24.03125 27.6796875 C19.45873344 29.67132487 15.11005156 29.31544181 10.1875 29.1875 C6.825625 29.125625 3.46375 29.06375 0 29 C0 19.43 0 9.86 0 0 Z " fill="#01347C" transform="translate(64,42)"/>
<path d="M0 0 C2.375 0.8125 2.375 0.8125 3.375 2.8125 C4.49948879 10.18414872 2.13626377 14.93778392 -1.60327148 21.14331055 C-6.24346255 29.01237578 -6.97195322 36.86892832 -6.9375 45.875 C-6.95361328 46.72126953 -6.96972656 47.56753906 -6.98632812 48.43945312 C-6.99079561 54.23377499 -5.95129922 58.50313634 -3.625 63.8125 C-5.68632142 63.92114945 -7.74931321 63.99838321 -9.8125 64.0625 C-11.53533203 64.13210937 -11.53533203 64.13210937 -13.29296875 64.203125 C-17.26479862 63.7374943 -18.81271485 62.58879613 -21.625 59.8125 C-23.72767836 55.60714329 -22.80992744 50.05781241 -22.8125 45.4375 C-22.82474609 44.28765625 -22.83699219 43.1378125 -22.84960938 41.953125 C-22.85154297 40.84710938 -22.85347656 39.74109375 -22.85546875 38.6015625 C-22.85957764 37.58787598 -22.86368652 36.57418945 -22.86791992 35.52978516 C-22.52230484 31.66375918 -21.53415007 29.60800631 -18.625 27.0625 C-15.51290473 25.76579364 -13.75706917 25.68048589 -10.4375 25.734375 C-9.53644531 25.7456543 -8.63539062 25.75693359 -7.70703125 25.76855469 C-7.01996094 25.78305664 -6.33289063 25.79755859 -5.625 25.8125 C-5.64071045 25.13147217 -5.6564209 24.45044434 -5.67260742 23.7487793 C-5.73493222 20.66593719 -5.77398258 17.58322756 -5.8125 14.5 C-5.83763672 13.42814453 -5.86277344 12.35628906 -5.88867188 11.25195312 C-5.89833984 10.22392578 -5.90800781 9.19589844 -5.91796875 8.13671875 C-5.9336792 7.18885498 -5.94938965 6.24099121 -5.96557617 5.2644043 C-5.625 2.8125 -5.625 2.8125 -4.27075195 0.96801758 C-2.625 -0.1875 -2.625 -0.1875 0 0 Z " fill="#4794FE" transform="translate(22.625,15.1875)"/>
<path d="M0 0 C2.375 0.8125 2.375 0.8125 3.375 2.8125 C3.45949628 4.5529417 3.48223024 6.29659722 3.47265625 8.0390625 C3.46943359 9.0703125 3.46621094 10.1015625 3.46289062 11.1640625 C3.45451172 12.24429687 3.44613281 13.32453125 3.4375 14.4375 C3.43298828 15.52546875 3.42847656 16.6134375 3.42382812 17.734375 C3.41201776 20.42713789 3.39554778 23.11979188 3.375 25.8125 C4.06207031 25.79727295 4.74914062 25.7820459 5.45703125 25.76635742 C6.80861328 25.74859253 6.80861328 25.74859253 8.1875 25.73046875 C9.08082031 25.7152417 9.97414063 25.70001465 10.89453125 25.68432617 C14.11506354 25.85074147 15.92233599 26.74306474 18.375 28.8125 C21.39935097 33.34902646 20.70396012 37.78862901 20.6875 43.125 C20.70361328 44.15818359 20.71972656 45.19136719 20.73632812 46.25585938 C20.73991341 51.8453182 20.59762251 56.02169135 17.375 60.8125 C13.31902085 64.61498045 8.85818138 64.06368469 3.60546875 63.91796875 C2.86941406 63.88316406 2.13335937 63.84835938 1.375 63.8125 C1.86097656 62.71421875 2.34695312 61.6159375 2.84765625 60.484375 C4.76591245 55.34340317 4.8715785 50.50334833 4.8125 45.0625 C4.80492676 44.08893555 4.79735352 43.11537109 4.78955078 42.11230469 C4.5647773 32.28461744 2.44190532 24.90274123 -2.875 16.625 C-5.48631729 12.52622349 -6.26048377 9.55593729 -6.12890625 4.72265625 C-5.19301295 1.17496768 -3.65491653 -0.26106547 0 0 Z " fill="#515BDC" transform="translate(107.625,15.1875)"/>
<path d="M0 0 C22.83799057 -1.08039984 22.83799057 -1.08039984 30 5 C34.7927881 10.01523818 37.96065039 15.19370572 38.4375 22.1875 C38.28120271 28.42897171 35.6514835 33.94788025 31.578125 38.63671875 C24.79798945 44.70603363 18.2325997 45.43093692 9.5625 45.1875 C8.64017578 45.17396484 7.71785156 45.16042969 6.76757812 45.14648438 C4.51109617 45.11140953 2.25586774 45.06226387 0 45 C0 42.69 0 40.38 0 38 C1.2065625 37.97421875 2.413125 37.9484375 3.65625 37.921875 C5.27086738 37.86555114 6.88544933 37.8082048 8.5 37.75 C9.68722656 37.72873047 9.68722656 37.72873047 10.8984375 37.70703125 C16.6315066 37.4720694 21.22059859 36.27751072 26 33 C29.17299693 28.83544154 29.63125292 24.59107958 29.4921875 19.4765625 C28.66671475 15.32299329 26.26451827 12.59731745 23 10 C19.13676662 8.71225554 15.42509463 8.76617207 11.39453125 8.68359375 C10.13572395 8.6524221 10.13572395 8.6524221 8.85148621 8.62062073 C6.17190706 8.55525982 3.49223031 8.49630286 0.8125 8.4375 C-1.00456737 8.39430198 -2.82162488 8.35068727 -4.63867188 8.30664062 C-9.09234799 8.1995922 -13.54612226 8.09828681 -18 8 C-18 7.67 -18 7.34 -18 7 C-12.06 7 -6.12 7 0 7 C0 4.69 0 2.38 0 0 Z " fill="#9DB4D9" transform="translate(64,34)"/>
<path d="M0 0 C0.93134766 0.00902344 1.86269531 0.01804688 2.82226562 0.02734375 C5.1109436 0.05081737 7.39908672 0.08365271 9.6875 0.125 C9.6875 2.435 9.6875 4.745 9.6875 7.125 C8.4809375 7.13917969 7.274375 7.15335938 6.03125 7.16796875 C-6.17550228 7.11790346 -6.17550228 7.11790346 -16.3125 13.125 C-19.30075501 16.58016986 -19.79546788 19.56985018 -19.59765625 24.13671875 C-18.95342933 28.62865711 -17.08948214 31.40629152 -13.8125 34.4375 C-10.54274316 36.64458587 -7.93744968 37.2500025 -4.08203125 37.44140625 C-2.87836914 37.50424805 -2.87836914 37.50424805 -1.65039062 37.56835938 C-0.81701172 37.60767578 0.01636719 37.64699219 0.875 37.6875 C2.1424707 37.75227539 2.1424707 37.75227539 3.43554688 37.81835938 C5.51934433 37.92431518 7.60340103 38.0251502 9.6875 38.125 C9.6875 40.435 9.6875 42.745 9.6875 45.125 C-14.40765609 45.82680066 -14.40765609 45.82680066 -22.8046875 37.91796875 C-27.01694895 32.90908791 -29.10848288 26.99563564 -28.75390625 20.453125 C-27.32423003 12.91253182 -23.60941843 7.60512084 -17.375 3.28125 C-11.46324507 -0.03291564 -6.66849618 -0.12253067 0 0 Z " fill="#D5E1EF" transform="translate(54.3125,33.875)"/>
<path d="M0 0 C0.33 0 0.66 0 1 0 C1.08738991 4.37487331 1.140524 8.74952078 1.1875 13.125 C1.21263672 14.3625 1.23777344 15.6 1.26367188 16.875 C1.27333984 18.07382813 1.28300781 19.27265625 1.29296875 20.5078125 C1.3086792 21.60754395 1.32438965 22.70727539 1.34057617 23.84033203 C0.74029789 29.40936535 -2.0804026 34.0804026 -6 38 C-14.58490652 44.73471115 -24.70400667 43.47568758 -35 43 C-34.67 40.36 -34.34 37.72 -34 35 C-32.98679687 34.96261719 -31.97359375 34.92523438 -30.9296875 34.88671875 C-29.57809061 34.82101612 -28.22652971 34.75457029 -26.875 34.6875 C-25.87726563 34.65366211 -25.87726563 34.65366211 -24.859375 34.61914062 C-18.92075661 34.29892101 -14.75243422 32.89452348 -10.6875 28.5 C-7.48987149 23.76277258 -7.75658017 18.95458773 -7.74609375 13.44921875 C-7.671875 11.46875 -7.671875 11.46875 -7 8 C-4.53515625 6.19921875 -4.53515625 6.19921875 -2 5 C-0.65310085 2.42900598 -0.65310085 2.42900598 0 0 Z " fill="#00429D" transform="translate(127,70)"/>
<path d="M0 0 C2.375 0.8125 2.375 0.8125 3.375 2.8125 C4.77287129 12.13164193 0.20241107 18.23734378 -4.625 25.8125 C-4.955 25.8125 -5.285 25.8125 -5.625 25.8125 C-5.711985 22.04181168 -5.76538579 18.27138068 -5.8125 14.5 C-5.83763672 13.42814453 -5.86277344 12.35628906 -5.88867188 11.25195312 C-5.89833984 10.22392578 -5.90800781 9.19589844 -5.91796875 8.13671875 C-5.9336792 7.18885498 -5.94938965 6.24099121 -5.96557617 5.2644043 C-5.625 2.8125 -5.625 2.8125 -4.27075195 0.96801758 C-2.625 -0.1875 -2.625 -0.1875 0 0 Z " fill="#02439E" transform="translate(22.625,15.1875)"/>
<path d="M0 0 C2.375 0.8125 2.375 0.8125 3.375 2.8125 C3.45949628 4.5529417 3.48223024 6.29659722 3.47265625 8.0390625 C3.46943359 9.0703125 3.46621094 10.1015625 3.46289062 11.1640625 C3.45451172 12.24429687 3.44613281 13.32453125 3.4375 14.4375 C3.43298828 15.52546875 3.42847656 16.6134375 3.42382812 17.734375 C3.41201776 20.42713789 3.39554778 23.11979188 3.375 25.8125 C-6.3514254 12.89652641 -6.3514254 12.89652641 -6.12890625 4.72265625 C-5.19301295 1.17496768 -3.65491653 -0.26106547 0 0 Z " fill="#00347B" transform="translate(107.625,15.1875)"/>
<path d="M0 0 C2.5 0.125 2.5 0.125 3.5 1.125 C3.6875 4.5625 3.6875 4.5625 3.5 8.125 C2.84 8.785 2.18 9.445 1.5 10.125 C-2.03571429 9.58928571 -2.03571429 9.58928571 -3.5 8.125 C-3.625 4.625 -3.625 4.625 -3.5 1.125 C-2.5 0.125 -2.5 0.125 0 0 Z " fill="#4E5AD9" transform="translate(78.5,51.875)"/>
<path d="M0 0 C2.5 0.125 2.5 0.125 3.5 1.125 C3.6875 4.5625 3.6875 4.5625 3.5 8.125 C2.84 8.785 2.18 9.445 1.5 10.125 C-2.03571429 9.58928571 -2.03571429 9.58928571 -3.5 8.125 C-3.625 4.625 -3.625 4.625 -3.5 1.125 C-2.5 0.125 -2.5 0.125 0 0 Z " fill="#448FFB" transform="translate(49.5,51.875)"/>
</svg>
