<?xml version="1.0" encoding="UTF-8"?>
<svg version="1.1" xmlns="http://www.w3.org/2000/svg" width="120" height="120">
<path d="M0 0 C39.6 0 79.2 0 120 0 C120 39.6 120 79.2 120 120 C80.4 120 40.8 120 0 120 C0 80.4 0 40.8 0 0 Z " fill="#FEFEFE" transform="translate(0,0)"/>
<path d="M0 0 C0.90943359 0.32097656 1.81886719 0.64195313 2.75585938 0.97265625 C9.41088669 3.34838669 9.41088669 3.34838669 10.5625 4.5 C10.70094132 7.04942075 10.77568304 9.56971599 10.80078125 12.12109375 C10.808853 12.89501968 10.81692474 13.66894562 10.82524109 14.46632385 C10.83910773 16.11318713 10.84981828 17.76007946 10.85766602 19.40698242 C10.87471745 21.89625195 10.91855636 24.38413623 10.96289062 26.87304688 C11.0700089 37.79230454 10.36864835 47.3219996 2.53125 55.69921875 C-10.24477136 67.38522242 -10.24477136 67.38522242 -17.4375 67.5 C-20 66.2421875 -20 66.2421875 -22.4375 64.375 C-23.72914062 63.39273438 -23.72914062 63.39273438 -25.046875 62.390625 C-25.83578125 61.76671875 -26.6246875 61.1428125 -27.4375 60.5 C-28.02015625 60.08234375 -28.6028125 59.6646875 -29.203125 59.234375 C-35.39350541 54.60788017 -39.41051835 47.85803904 -41.4375 40.5 C-41.60023122 37.64327959 -41.67173027 34.89114659 -41.6328125 32.0390625 C-41.6299826 31.24849457 -41.62715271 30.45792664 -41.62423706 29.6434021 C-41.61310955 27.13710916 -41.58801926 24.63118355 -41.5625 22.125 C-41.55246058 20.41797394 -41.54333641 18.71094223 -41.53515625 17.00390625 C-41.51319463 12.8357976 -41.47871671 8.66796092 -41.4375 4.5 C-39.55733939 3.71603138 -37.67711926 2.93220548 -35.796875 2.1484375 C-34.74983398 1.71192871 -33.70279297 1.27541992 -32.62402344 0.82568359 C-19.84216394 -4.49193034 -13.00877282 -4.73219055 0 0 Z " fill="#5DCB77" transform="translate(75.4375,28.5)"/>
<path d="M0 0 C0.90943359 0.32097656 1.81886719 0.64195313 2.75585938 0.97265625 C9.41088669 3.34838669 9.41088669 3.34838669 10.5625 4.5 C10.70094132 7.04942075 10.77568304 9.56971599 10.80078125 12.12109375 C10.808853 12.89501968 10.81692474 13.66894562 10.82524109 14.46632385 C10.83910773 16.11318713 10.84981828 17.76007946 10.85766602 19.40698242 C10.87471745 21.89625195 10.91855636 24.38413623 10.96289062 26.87304688 C11.0700089 37.79230454 10.36864835 47.3219996 2.53125 55.69921875 C-10.24477136 67.38522242 -10.24477136 67.38522242 -17.4375 67.5 C-20 66.2421875 -20 66.2421875 -22.4375 64.375 C-23.72914062 63.39273438 -23.72914062 63.39273438 -25.046875 62.390625 C-25.83578125 61.76671875 -26.6246875 61.1428125 -27.4375 60.5 C-28.02015625 60.08234375 -28.6028125 59.6646875 -29.203125 59.234375 C-35.39350541 54.60788017 -39.41051835 47.85803904 -41.4375 40.5 C-41.60023122 37.64327959 -41.67173027 34.89114659 -41.6328125 32.0390625 C-41.6299826 31.24849457 -41.62715271 30.45792664 -41.62423706 29.6434021 C-41.61310955 27.13710916 -41.58801926 24.63118355 -41.5625 22.125 C-41.55246058 20.41797394 -41.54333641 18.71094223 -41.53515625 17.00390625 C-41.51319463 12.8357976 -41.47871671 8.66796092 -41.4375 4.5 C-39.55733939 3.71603138 -37.67711926 2.93220548 -35.796875 2.1484375 C-34.74983398 1.71192871 -33.70279297 1.27541992 -32.62402344 0.82568359 C-19.84216394 -4.49193034 -13.00877282 -4.73219055 0 0 Z M-23.046875 0.99609375 C-24.30177734 1.46305664 -24.30177734 1.46305664 -25.58203125 1.93945312 C-26.44183594 2.26880859 -27.30164063 2.59816406 -28.1875 2.9375 C-29.06277344 3.26298828 -29.93804687 3.58847656 -30.83984375 3.92382812 C-34.93792939 5.20893045 -34.93792939 5.20893045 -38.4375 7.5 C-38.73053799 11.894457 -38.7518208 16.29502698 -38.78759766 20.69799805 C-38.80402184 22.17504786 -38.83112934 23.65202279 -38.86962891 25.12866211 C-39.14330469 35.68659779 -38.10085287 43.39593649 -31.515625 52.015625 C-24.64814983 58.75258197 -24.64814983 58.75258197 -16.4375 63.5 C-8.24263375 61.28345967 0.05116142 53.68154213 4.74609375 46.75341797 C8.64863255 39.17801313 8.00613395 31.21169769 7.8125 22.9375 C7.7923987 21.43687287 7.77415436 19.93621966 7.7578125 18.43554688 C7.71411687 14.78981517 7.64529202 11.14507801 7.5625 7.5 C5.66592133 6.70310075 3.76865001 5.90784987 1.87109375 5.11328125 C0.81462646 4.67024658 -0.24184082 4.22721191 -1.33032227 3.77075195 C-11.95820532 -0.66797027 -11.95820532 -0.66797027 -23.046875 0.99609375 Z " fill="#029C23" transform="translate(75.4375,28.5)"/>
<path d="M0 0 C1.875 1.125 1.875 1.125 3 3 C3.1875 6.1875 3.1875 6.1875 3 9 C3.99 9 4.98 9 6 9 C6 13.95 6 18.9 6 24 C3.18743719 24.02684312 0.37512759 24.04676188 -2.4375 24.0625 C-3.23994141 24.07087891 -4.04238281 24.07925781 -4.86914062 24.08789062 C-6.91295221 24.0965143 -8.95683902 24.0522815 -11 24 C-12 23 -12 23 -12.09765625 19.83984375 C-12.08025391 17.90818359 -12.08025391 17.90818359 -12.0625 15.9375 C-12.05347656 14.64714844 -12.04445312 13.35679688 -12.03515625 12.02734375 C-12.02355469 11.02832031 -12.01195312 10.02929688 -12 9 C-11.01 9 -10.02 9 -9 9 C-9.061875 8.071875 -9.12375 7.14375 -9.1875 6.1875 C-9 3 -9 3 -7.875 1.125 C-5.11909116 -0.52854531 -3.14924548 -0.39365568 0 0 Z " fill="#FCFDFC" transform="translate(63,46)"/>
<path d="M0 0 C2.27212281 2.10982832 4.01396237 4.02309161 5.625 6.6875 C9.6569145 12.98435453 16.3953472 18.58685728 23 22 C31.10526498 20.46657149 38.27460252 12.30052997 43 6 C44.18109194 4.0231369 45.09701164 2.12467849 46 0 C46.99 0 47.98 0 49 0 C48.51989996 5.04105044 47.00915884 7.95912956 44 12 C43.41605469 12.78761719 42.83210938 13.57523438 42.23046875 14.38671875 C39.75754845 17.2840632 37.15880839 19.44955496 34.125 21.75 C33.11695313 22.52859375 32.10890625 23.3071875 31.0703125 24.109375 C27.80767062 26.11843183 25.82287875 26.94902828 22 27 C19.4375 25.7421875 19.4375 25.7421875 17 23.875 C16.13890625 23.22015625 15.2778125 22.5653125 14.390625 21.890625 C13.60171875 21.26671875 12.8128125 20.6428125 12 20 C11.41734375 19.58234375 10.8346875 19.1646875 10.234375 18.734375 C5.05758321 14.8654043 1.03705262 9.11115786 -1 3 C-0.67 2.01 -0.34 1.02 0 0 Z " fill="#0A9F2C" transform="translate(36,69)"/>
<path d="M0 0 C4.55555556 0.55555556 4.55555556 0.55555556 6 2 C6.04063832 3.66617115 6.042721 5.33388095 6 7 C3.36 7 0.72 7 -2 7 C-2.125 4.625 -2.125 4.625 -2 2 C-1.34 1.34 -0.68 0.68 0 0 Z " fill="#5ACB76" transform="translate(58,48)"/>
<path d="M0 0 C0.66 0.66 1.32 1.32 2 2 C0.68 3.32 -0.64 4.64 -2 6 C-2.99 5.34 -3.98 4.68 -5 4 C-3 1 -3 1 0 0 Z " fill="#0DA032" transform="translate(57,24)"/>
<path d="M0 0 C0.99 0.33 1.98 0.66 3 1 C2.67 2.98 2.34 4.96 2 7 C1.34 7 0.68 7 0 7 C-0.38133299 5.0085944 -0.71325582 3.00720923 -1 1 C-0.67 0.67 -0.34 0.34 0 0 Z " fill="#56CB73" transform="translate(59,59)"/>
</svg>
